<?xml version="1.0" encoding="utf-8" standalone="no"?>
<!DOCTYPE svg PUBLIC "-//W3C//DTD SVG 1.1//EN"
  "http://www.w3.org/Graphics/SVG/1.1/DTD/svg11.dtd">
<svg height="432pt" version="1.1" viewBox="0 0 648 432" width="648pt" xmlns="http://www.w3.org/2000/svg" xmlns:xlink="http://www.w3.org/1999/xlink">
 <metadata>
  <rdf:RDF xmlns:cc="http://creativecommons.org/ns#" xmlns:dc="http://purl.org/dc/elements/1.1/" xmlns:rdf="http://www.w3.org/1999/02/22-rdf-syntax-ns#">
   <cc:Work>
    <dc:type rdf:resource="http://purl.org/dc/dcmitype/StillImage"/>
    <dc:date>2023-03-21T13:02:54.274098</dc:date>
    <dc:format>image/svg+xml</dc:format>
    <dc:creator>
     <cc:Agent>
      <dc:title>Matplotlib v3.4.3, https://matplotlib.org/</dc:title>
     </cc:Agent>
    </dc:creator>
   </cc:Work>
  </rdf:RDF>
 </metadata>
 <defs>
  <style type="text/css">*{stroke-linecap:butt;stroke-linejoin:round;}</style>
 </defs>
 <g id="figure_1">
  <g id="patch_1">
   <path d="M 0 432 
L 648 432 
L 648 0 
L 0 0 
z
" style="fill:#ffffff;"/>
  </g>
  <g id="axes_1">
   <g id="patch_2">
    <path d="M 97.2 367.2 
L 583.2 367.2 
L 583.2 64.8 
L 97.2 64.8 
z
" style="fill:#ffffff;"/>
   </g>
   <g id="matplotlib.axis_1">
    <g id="xtick_1">
     <g id="line2d_1">
      <defs>
       <path d="M 0 0 
L 0 3.5 
" id="m14b1f05b0f" style="stroke:#000000;stroke-width:0.8;"/>
      </defs>
      <g>
       <use style="stroke:#000000;stroke-width:0.8;" x="141.381818" xlink:href="#m14b1f05b0f" y="367.2"/>
      </g>
     </g>
     <g id="text_1">
      <!-- 250 -->
      <g transform="translate(119.431193 391.676406)scale(0.23 -0.23)">
       <defs>
        <path d="M 1228 531 
L 3431 531 
L 3431 0 
L 469 0 
L 469 531 
Q 828 903 1448 1529 
Q 2069 2156 2228 2338 
Q 2531 2678 2651 2914 
Q 2772 3150 2772 3378 
Q 2772 3750 2511 3984 
Q 2250 4219 1831 4219 
Q 1534 4219 1204 4116 
Q 875 4013 500 3803 
L 500 4441 
Q 881 4594 1212 4672 
Q 1544 4750 1819 4750 
Q 2544 4750 2975 4387 
Q 3406 4025 3406 3419 
Q 3406 3131 3298 2873 
Q 3191 2616 2906 2266 
Q 2828 2175 2409 1742 
Q 1991 1309 1228 531 
z
" id="DejaVuSans-32" transform="scale(0.015625)"/>
        <path d="M 691 4666 
L 3169 4666 
L 3169 4134 
L 1269 4134 
L 1269 2991 
Q 1406 3038 1543 3061 
Q 1681 3084 1819 3084 
Q 2600 3084 3056 2656 
Q 3513 2228 3513 1497 
Q 3513 744 3044 326 
Q 2575 -91 1722 -91 
Q 1428 -91 1123 -41 
Q 819 9 494 109 
L 494 744 
Q 775 591 1075 516 
Q 1375 441 1709 441 
Q 2250 441 2565 725 
Q 2881 1009 2881 1497 
Q 2881 1984 2565 2268 
Q 2250 2553 1709 2553 
Q 1456 2553 1204 2497 
Q 953 2441 691 2322 
L 691 4666 
z
" id="DejaVuSans-35" transform="scale(0.015625)"/>
        <path d="M 2034 4250 
Q 1547 4250 1301 3770 
Q 1056 3291 1056 2328 
Q 1056 1369 1301 889 
Q 1547 409 2034 409 
Q 2525 409 2770 889 
Q 3016 1369 3016 2328 
Q 3016 3291 2770 3770 
Q 2525 4250 2034 4250 
z
M 2034 4750 
Q 2819 4750 3233 4129 
Q 3647 3509 3647 2328 
Q 3647 1150 3233 529 
Q 2819 -91 2034 -91 
Q 1250 -91 836 529 
Q 422 1150 422 2328 
Q 422 3509 836 4129 
Q 1250 4750 2034 4750 
z
" id="DejaVuSans-30" transform="scale(0.015625)"/>
       </defs>
       <use xlink:href="#DejaVuSans-32"/>
       <use x="63.623047" xlink:href="#DejaVuSans-35"/>
       <use x="127.246094" xlink:href="#DejaVuSans-30"/>
      </g>
     </g>
    </g>
    <g id="xtick_2">
     <g id="line2d_2">
      <g>
       <use style="stroke:#000000;stroke-width:0.8;" x="196.609091" xlink:href="#m14b1f05b0f" y="367.2"/>
      </g>
     </g>
     <g id="text_2">
      <!-- 500 -->
      <g transform="translate(174.658466 391.676406)scale(0.23 -0.23)">
       <use xlink:href="#DejaVuSans-35"/>
       <use x="63.623047" xlink:href="#DejaVuSans-30"/>
       <use x="127.246094" xlink:href="#DejaVuSans-30"/>
      </g>
     </g>
    </g>
    <g id="xtick_3">
     <g id="line2d_3">
      <g>
       <use style="stroke:#000000;stroke-width:0.8;" x="251.836364" xlink:href="#m14b1f05b0f" y="367.2"/>
      </g>
     </g>
     <g id="text_3">
      <!-- 750 -->
      <g transform="translate(229.885739 391.676406)scale(0.23 -0.23)">
       <defs>
        <path d="M 525 4666 
L 3525 4666 
L 3525 4397 
L 1831 0 
L 1172 0 
L 2766 4134 
L 525 4134 
L 525 4666 
z
" id="DejaVuSans-37" transform="scale(0.015625)"/>
       </defs>
       <use xlink:href="#DejaVuSans-37"/>
       <use x="63.623047" xlink:href="#DejaVuSans-35"/>
       <use x="127.246094" xlink:href="#DejaVuSans-30"/>
      </g>
     </g>
    </g>
    <g id="xtick_4">
     <g id="line2d_4">
      <g>
       <use style="stroke:#000000;stroke-width:0.8;" x="307.063636" xlink:href="#m14b1f05b0f" y="367.2"/>
      </g>
     </g>
     <g id="text_4">
      <!-- 1000 -->
      <g transform="translate(277.796136 391.676406)scale(0.23 -0.23)">
       <defs>
        <path d="M 794 531 
L 1825 531 
L 1825 4091 
L 703 3866 
L 703 4441 
L 1819 4666 
L 2450 4666 
L 2450 531 
L 3481 531 
L 3481 0 
L 794 0 
L 794 531 
z
" id="DejaVuSans-31" transform="scale(0.015625)"/>
       </defs>
       <use xlink:href="#DejaVuSans-31"/>
       <use x="63.623047" xlink:href="#DejaVuSans-30"/>
       <use x="127.246094" xlink:href="#DejaVuSans-30"/>
       <use x="190.869141" xlink:href="#DejaVuSans-30"/>
      </g>
     </g>
    </g>
    <g id="xtick_5">
     <g id="line2d_5">
      <g>
       <use style="stroke:#000000;stroke-width:0.8;" x="362.290909" xlink:href="#m14b1f05b0f" y="367.2"/>
      </g>
     </g>
     <g id="text_5">
      <!-- 1250 -->
      <g transform="translate(333.023409 391.676406)scale(0.23 -0.23)">
       <use xlink:href="#DejaVuSans-31"/>
       <use x="63.623047" xlink:href="#DejaVuSans-32"/>
       <use x="127.246094" xlink:href="#DejaVuSans-35"/>
       <use x="190.869141" xlink:href="#DejaVuSans-30"/>
      </g>
     </g>
    </g>
    <g id="xtick_6">
     <g id="line2d_6">
      <g>
       <use style="stroke:#000000;stroke-width:0.8;" x="417.518182" xlink:href="#m14b1f05b0f" y="367.2"/>
      </g>
     </g>
     <g id="text_6">
      <!-- 1500 -->
      <g transform="translate(388.250682 391.676406)scale(0.23 -0.23)">
       <use xlink:href="#DejaVuSans-31"/>
       <use x="63.623047" xlink:href="#DejaVuSans-35"/>
       <use x="127.246094" xlink:href="#DejaVuSans-30"/>
       <use x="190.869141" xlink:href="#DejaVuSans-30"/>
      </g>
     </g>
    </g>
    <g id="xtick_7">
     <g id="line2d_7">
      <g>
       <use style="stroke:#000000;stroke-width:0.8;" x="472.745455" xlink:href="#m14b1f05b0f" y="367.2"/>
      </g>
     </g>
     <g id="text_7">
      <!-- 1750 -->
      <g transform="translate(443.477955 391.676406)scale(0.23 -0.23)">
       <use xlink:href="#DejaVuSans-31"/>
       <use x="63.623047" xlink:href="#DejaVuSans-37"/>
       <use x="127.246094" xlink:href="#DejaVuSans-35"/>
       <use x="190.869141" xlink:href="#DejaVuSans-30"/>
      </g>
     </g>
    </g>
    <g id="xtick_8">
     <g id="line2d_8">
      <g>
       <use style="stroke:#000000;stroke-width:0.8;" x="527.972727" xlink:href="#m14b1f05b0f" y="367.2"/>
      </g>
     </g>
     <g id="text_8">
      <!-- 2000 -->
      <g transform="translate(498.705227 391.676406)scale(0.23 -0.23)">
       <use xlink:href="#DejaVuSans-32"/>
       <use x="63.623047" xlink:href="#DejaVuSans-30"/>
       <use x="127.246094" xlink:href="#DejaVuSans-30"/>
       <use x="190.869141" xlink:href="#DejaVuSans-30"/>
      </g>
     </g>
    </g>
    <g id="xtick_9">
     <g id="line2d_9">
      <g>
       <use style="stroke:#000000;stroke-width:0.8;" x="583.2" xlink:href="#m14b1f05b0f" y="367.2"/>
      </g>
     </g>
     <g id="text_9">
      <!-- 2250 -->
      <g transform="translate(553.9325 391.676406)scale(0.23 -0.23)">
       <use xlink:href="#DejaVuSans-32"/>
       <use x="63.623047" xlink:href="#DejaVuSans-32"/>
       <use x="127.246094" xlink:href="#DejaVuSans-35"/>
       <use x="190.869141" xlink:href="#DejaVuSans-30"/>
      </g>
     </g>
    </g>
    <g id="text_10">
     <!-- Time (ms) -->
     <g transform="translate(282.241797 417.936094)scale(0.23 -0.23)">
      <defs>
       <path d="M -19 4666 
L 3928 4666 
L 3928 4134 
L 2272 4134 
L 2272 0 
L 1638 0 
L 1638 4134 
L -19 4134 
L -19 4666 
z
" id="DejaVuSans-54" transform="scale(0.015625)"/>
       <path d="M 603 3500 
L 1178 3500 
L 1178 0 
L 603 0 
L 603 3500 
z
M 603 4863 
L 1178 4863 
L 1178 4134 
L 603 4134 
L 603 4863 
z
" id="DejaVuSans-69" transform="scale(0.015625)"/>
       <path d="M 3328 2828 
Q 3544 3216 3844 3400 
Q 4144 3584 4550 3584 
Q 5097 3584 5394 3201 
Q 5691 2819 5691 2113 
L 5691 0 
L 5113 0 
L 5113 2094 
Q 5113 2597 4934 2840 
Q 4756 3084 4391 3084 
Q 3944 3084 3684 2787 
Q 3425 2491 3425 1978 
L 3425 0 
L 2847 0 
L 2847 2094 
Q 2847 2600 2669 2842 
Q 2491 3084 2119 3084 
Q 1678 3084 1418 2786 
Q 1159 2488 1159 1978 
L 1159 0 
L 581 0 
L 581 3500 
L 1159 3500 
L 1159 2956 
Q 1356 3278 1631 3431 
Q 1906 3584 2284 3584 
Q 2666 3584 2933 3390 
Q 3200 3197 3328 2828 
z
" id="DejaVuSans-6d" transform="scale(0.015625)"/>
       <path d="M 3597 1894 
L 3597 1613 
L 953 1613 
Q 991 1019 1311 708 
Q 1631 397 2203 397 
Q 2534 397 2845 478 
Q 3156 559 3463 722 
L 3463 178 
Q 3153 47 2828 -22 
Q 2503 -91 2169 -91 
Q 1331 -91 842 396 
Q 353 884 353 1716 
Q 353 2575 817 3079 
Q 1281 3584 2069 3584 
Q 2775 3584 3186 3129 
Q 3597 2675 3597 1894 
z
M 3022 2063 
Q 3016 2534 2758 2815 
Q 2500 3097 2075 3097 
Q 1594 3097 1305 2825 
Q 1016 2553 972 2059 
L 3022 2063 
z
" id="DejaVuSans-65" transform="scale(0.015625)"/>
       <path id="DejaVuSans-20" transform="scale(0.015625)"/>
       <path d="M 1984 4856 
Q 1566 4138 1362 3434 
Q 1159 2731 1159 2009 
Q 1159 1288 1364 580 
Q 1569 -128 1984 -844 
L 1484 -844 
Q 1016 -109 783 600 
Q 550 1309 550 2009 
Q 550 2706 781 3412 
Q 1013 4119 1484 4856 
L 1984 4856 
z
" id="DejaVuSans-28" transform="scale(0.015625)"/>
       <path d="M 2834 3397 
L 2834 2853 
Q 2591 2978 2328 3040 
Q 2066 3103 1784 3103 
Q 1356 3103 1142 2972 
Q 928 2841 928 2578 
Q 928 2378 1081 2264 
Q 1234 2150 1697 2047 
L 1894 2003 
Q 2506 1872 2764 1633 
Q 3022 1394 3022 966 
Q 3022 478 2636 193 
Q 2250 -91 1575 -91 
Q 1294 -91 989 -36 
Q 684 19 347 128 
L 347 722 
Q 666 556 975 473 
Q 1284 391 1588 391 
Q 1994 391 2212 530 
Q 2431 669 2431 922 
Q 2431 1156 2273 1281 
Q 2116 1406 1581 1522 
L 1381 1569 
Q 847 1681 609 1914 
Q 372 2147 372 2553 
Q 372 3047 722 3315 
Q 1072 3584 1716 3584 
Q 2034 3584 2315 3537 
Q 2597 3491 2834 3397 
z
" id="DejaVuSans-73" transform="scale(0.015625)"/>
       <path d="M 513 4856 
L 1013 4856 
Q 1481 4119 1714 3412 
Q 1947 2706 1947 2009 
Q 1947 1309 1714 600 
Q 1481 -109 1013 -844 
L 513 -844 
Q 928 -128 1133 580 
Q 1338 1288 1338 2009 
Q 1338 2731 1133 3434 
Q 928 4138 513 4856 
z
" id="DejaVuSans-29" transform="scale(0.015625)"/>
      </defs>
      <use xlink:href="#DejaVuSans-54"/>
      <use x="57.958984" xlink:href="#DejaVuSans-69"/>
      <use x="85.742188" xlink:href="#DejaVuSans-6d"/>
      <use x="183.154297" xlink:href="#DejaVuSans-65"/>
      <use x="244.677734" xlink:href="#DejaVuSans-20"/>
      <use x="276.464844" xlink:href="#DejaVuSans-28"/>
      <use x="315.478516" xlink:href="#DejaVuSans-6d"/>
      <use x="412.890625" xlink:href="#DejaVuSans-73"/>
      <use x="464.990234" xlink:href="#DejaVuSans-29"/>
     </g>
    </g>
   </g>
   <g id="matplotlib.axis_2">
    <g id="ytick_1">
     <g id="line2d_10">
      <defs>
       <path d="M 0 0 
L -3.5 0 
" id="mf516febe5d" style="stroke:#000000;stroke-width:0.8;"/>
      </defs>
      <g>
       <use style="stroke:#000000;stroke-width:0.8;" x="97.2" xlink:href="#mf516febe5d" y="367.2"/>
      </g>
     </g>
     <g id="text_11">
      <!-- −80 -->
      <g transform="translate(41.659219 375.938203)scale(0.23 -0.23)">
       <defs>
        <path d="M 678 2272 
L 4684 2272 
L 4684 1741 
L 678 1741 
L 678 2272 
z
" id="DejaVuSans-2212" transform="scale(0.015625)"/>
        <path d="M 2034 2216 
Q 1584 2216 1326 1975 
Q 1069 1734 1069 1313 
Q 1069 891 1326 650 
Q 1584 409 2034 409 
Q 2484 409 2743 651 
Q 3003 894 3003 1313 
Q 3003 1734 2745 1975 
Q 2488 2216 2034 2216 
z
M 1403 2484 
Q 997 2584 770 2862 
Q 544 3141 544 3541 
Q 544 4100 942 4425 
Q 1341 4750 2034 4750 
Q 2731 4750 3128 4425 
Q 3525 4100 3525 3541 
Q 3525 3141 3298 2862 
Q 3072 2584 2669 2484 
Q 3125 2378 3379 2068 
Q 3634 1759 3634 1313 
Q 3634 634 3220 271 
Q 2806 -91 2034 -91 
Q 1263 -91 848 271 
Q 434 634 434 1313 
Q 434 1759 690 2068 
Q 947 2378 1403 2484 
z
M 1172 3481 
Q 1172 3119 1398 2916 
Q 1625 2713 2034 2713 
Q 2441 2713 2670 2916 
Q 2900 3119 2900 3481 
Q 2900 3844 2670 4047 
Q 2441 4250 2034 4250 
Q 1625 4250 1398 4047 
Q 1172 3844 1172 3481 
z
" id="DejaVuSans-38" transform="scale(0.015625)"/>
       </defs>
       <use xlink:href="#DejaVuSans-2212"/>
       <use x="83.789062" xlink:href="#DejaVuSans-38"/>
       <use x="147.412109" xlink:href="#DejaVuSans-30"/>
      </g>
     </g>
    </g>
    <g id="ytick_2">
     <g id="line2d_11">
      <g>
       <use style="stroke:#000000;stroke-width:0.8;" x="97.2" xlink:href="#mf516febe5d" y="324"/>
      </g>
     </g>
     <g id="text_12">
      <!-- −60 -->
      <g transform="translate(41.659219 332.738203)scale(0.23 -0.23)">
       <defs>
        <path d="M 2113 2584 
Q 1688 2584 1439 2293 
Q 1191 2003 1191 1497 
Q 1191 994 1439 701 
Q 1688 409 2113 409 
Q 2538 409 2786 701 
Q 3034 994 3034 1497 
Q 3034 2003 2786 2293 
Q 2538 2584 2113 2584 
z
M 3366 4563 
L 3366 3988 
Q 3128 4100 2886 4159 
Q 2644 4219 2406 4219 
Q 1781 4219 1451 3797 
Q 1122 3375 1075 2522 
Q 1259 2794 1537 2939 
Q 1816 3084 2150 3084 
Q 2853 3084 3261 2657 
Q 3669 2231 3669 1497 
Q 3669 778 3244 343 
Q 2819 -91 2113 -91 
Q 1303 -91 875 529 
Q 447 1150 447 2328 
Q 447 3434 972 4092 
Q 1497 4750 2381 4750 
Q 2619 4750 2861 4703 
Q 3103 4656 3366 4563 
z
" id="DejaVuSans-36" transform="scale(0.015625)"/>
       </defs>
       <use xlink:href="#DejaVuSans-2212"/>
       <use x="83.789062" xlink:href="#DejaVuSans-36"/>
       <use x="147.412109" xlink:href="#DejaVuSans-30"/>
      </g>
     </g>
    </g>
    <g id="ytick_3">
     <g id="line2d_12">
      <g>
       <use style="stroke:#000000;stroke-width:0.8;" x="97.2" xlink:href="#mf516febe5d" y="280.8"/>
      </g>
     </g>
     <g id="text_13">
      <!-- −40 -->
      <g transform="translate(41.659219 289.538203)scale(0.23 -0.23)">
       <defs>
        <path d="M 2419 4116 
L 825 1625 
L 2419 1625 
L 2419 4116 
z
M 2253 4666 
L 3047 4666 
L 3047 1625 
L 3713 1625 
L 3713 1100 
L 3047 1100 
L 3047 0 
L 2419 0 
L 2419 1100 
L 313 1100 
L 313 1709 
L 2253 4666 
z
" id="DejaVuSans-34" transform="scale(0.015625)"/>
       </defs>
       <use xlink:href="#DejaVuSans-2212"/>
       <use x="83.789062" xlink:href="#DejaVuSans-34"/>
       <use x="147.412109" xlink:href="#DejaVuSans-30"/>
      </g>
     </g>
    </g>
    <g id="ytick_4">
     <g id="line2d_13">
      <g>
       <use style="stroke:#000000;stroke-width:0.8;" x="97.2" xlink:href="#mf516febe5d" y="237.6"/>
      </g>
     </g>
     <g id="text_14">
      <!-- −20 -->
      <g transform="translate(41.659219 246.338203)scale(0.23 -0.23)">
       <use xlink:href="#DejaVuSans-2212"/>
       <use x="83.789062" xlink:href="#DejaVuSans-32"/>
       <use x="147.412109" xlink:href="#DejaVuSans-30"/>
      </g>
     </g>
    </g>
    <g id="ytick_5">
     <g id="line2d_14">
      <g>
       <use style="stroke:#000000;stroke-width:0.8;" x="97.2" xlink:href="#mf516febe5d" y="194.4"/>
      </g>
     </g>
     <g id="text_15">
      <!-- 0 -->
      <g transform="translate(75.56625 203.138203)scale(0.23 -0.23)">
       <use xlink:href="#DejaVuSans-30"/>
      </g>
     </g>
    </g>
    <g id="ytick_6">
     <g id="line2d_15">
      <g>
       <use style="stroke:#000000;stroke-width:0.8;" x="97.2" xlink:href="#mf516febe5d" y="151.2"/>
      </g>
     </g>
     <g id="text_16">
      <!-- 20 -->
      <g transform="translate(60.9325 159.938203)scale(0.23 -0.23)">
       <use xlink:href="#DejaVuSans-32"/>
       <use x="63.623047" xlink:href="#DejaVuSans-30"/>
      </g>
     </g>
    </g>
    <g id="ytick_7">
     <g id="line2d_16">
      <g>
       <use style="stroke:#000000;stroke-width:0.8;" x="97.2" xlink:href="#mf516febe5d" y="108"/>
      </g>
     </g>
     <g id="text_17">
      <!-- 40 -->
      <g transform="translate(60.9325 116.738203)scale(0.23 -0.23)">
       <use xlink:href="#DejaVuSans-34"/>
       <use x="63.623047" xlink:href="#DejaVuSans-30"/>
      </g>
     </g>
    </g>
    <g id="ytick_8">
     <g id="line2d_17">
      <g>
       <use style="stroke:#000000;stroke-width:0.8;" x="97.2" xlink:href="#mf516febe5d" y="64.8"/>
      </g>
     </g>
     <g id="text_18">
      <!-- 60 -->
      <g transform="translate(60.9325 73.538203)scale(0.23 -0.23)">
       <use xlink:href="#DejaVuSans-36"/>
       <use x="63.623047" xlink:href="#DejaVuSans-30"/>
      </g>
     </g>
    </g>
   </g>
   <g id="line2d_18">
    <path clip-path="url(#p8978dd518e)" d="M 97.194477 358.832297 
L 108.250977 358.81778 
L 108.295159 355.063133 
L 108.604432 318.340657 
L 108.670705 319.099177 
L 108.869523 325.876844 
L 109.024159 331.504213 
L 109.079386 329.870999 
L 109.316864 317.192064 
L 109.405227 318.570776 
L 109.720023 329.274812 
L 109.77525 330.807454 
L 109.824955 329.449155 
L 110.084523 315.314764 
L 110.189455 316.863924 
L 110.509773 327.362034 
L 110.570523 323.814476 
L 110.841136 300.491904 
L 110.912932 301.420341 
L 111.100705 308.782479 
L 111.266386 316.350274 
L 111.316091 314.149306 
L 111.625364 289.089472 
L 111.71925 290.538771 
L 111.934636 300.252683 
L 112.061659 305.458626 
L 112.116886 304.307742 
L 112.381977 293.220611 
L 112.481386 294.655543 
L 112.680205 302.817373 
L 112.768568 306.910531 
L 112.823795 304.511225 
L 113.028136 278.743427 
L 113.29875 261.037918 
L 113.464432 257.787656 
L 113.492045 257.877374 
L 113.525182 258.088223 
L 113.552795 257.696236 
L 113.657727 251.82546 
L 113.900727 239.508998 
L 113.922818 239.591208 
L 114.016705 241.037755 
L 114.265227 247.567978 
L 114.325977 245.775379 
L 114.662864 231.787773 
L 114.718091 231.928219 
L 114.927955 233.416583 
L 115.016318 234.043867 
L 115.054977 233.655064 
L 115.397386 226.779805 
L 115.502318 226.985371 
L 115.761886 227.879986 
L 115.7895 227.572217 
L 116.192659 221.974573 
L 116.374909 221.992437 
L 116.512977 222.079069 
L 116.529545 221.995344 
L 116.733886 218.890211 
L 116.805682 218.468963 
L 116.877477 218.510518 
L 117.291682 218.344063 
L 117.545727 215.887898 
L 117.628568 216.020783 
L 117.705886 216.111574 
L 117.766636 216.073476 
L 118.048295 215.756085 
L 118.307864 213.876114 
L 118.357568 213.911358 
L 118.52325 214.037006 
L 118.567432 213.977166 
L 118.793864 213.408193 
L 119.036864 210.575767 
L 119.1915 205.52188 
L 119.301955 206.822602 
L 119.6775 211.811557 
L 119.843182 212.347049 
L 120.169023 213.541696 
L 120.268432 213.590198 
L 120.273955 213.547625 
L 120.528 210.927191 
L 120.616364 211.089729 
L 121.019523 211.922019 
L 121.041614 211.812987 
L 121.290136 210.282842 
L 121.350886 210.338411 
L 121.770614 210.946949 
L 121.809273 210.772713 
L 122.063318 209.444598 
L 122.124068 209.471228 
L 122.538273 209.69486 
L 122.565886 209.604698 
L 123.051886 207.99308 
L 123.189955 207.358953 
L 123.272795 205.677845 
L 123.38325 203.295434 
L 123.432955 203.507608 
L 123.692523 206.293782 
L 124.023886 208.664621 
L 124.090159 208.32931 
L 124.272409 207.527302 
L 124.327636 207.613285 
L 124.774977 208.060908 
L 124.791545 207.972936 
L 125.0235 206.786341 
L 125.067682 206.845397 
L 125.404568 207.214775 
L 125.537114 207.307386 
L 125.57025 207.220963 
L 125.785636 206.754541 
L 125.824295 206.789473 
L 126.199841 207.069973 
L 126.282682 207.097304 
L 126.310295 207.0046 
L 126.531205 206.395093 
L 126.569864 206.425407 
L 126.890182 206.608791 
L 127.055864 206.361817 
L 127.282295 205.278478 
L 127.320955 205.304087 
L 127.735159 205.526185 
L 128.088614 205.451198 
L 128.828659 205.38524 
L 129.21525 205.17291 
L 129.347795 204.811059 
L 129.447205 203.778271 
L 129.574227 201.707721 
L 129.634977 201.945802 
L 129.933205 204.643354 
L 130.225909 206.115483 
L 130.502045 206.372691 
L 131.319409 206.975685 
L 136.240159 211.308893 
L 138.394023 213.60814 
L 140.161295 215.821426 
L 141.619295 218.004147 
L 142.850864 220.243921 
L 143.91675 222.633501 
L 144.828 225.22398 
L 145.568045 227.997519 
L 146.147932 231.043761 
L 146.578705 234.518731 
L 146.887977 238.899188 
L 147.108886 245.46992 
L 147.269045 257.585756 
L 147.429205 291.194368 
L 147.677727 329.101731 
L 147.937295 338.386327 
L 148.263136 342.649664 
L 148.77675 346.30828 
L 149.494705 349.877308 
L 150.251318 352.569959 
L 151.041068 354.590064 
L 151.869477 356.12023 
L 152.753114 357.297122 
L 153.703023 358.197544 
L 154.741295 358.877435 
L 155.912114 359.375748 
L 157.276227 359.708439 
L 158.944091 359.877455 
L 161.180795 359.866118 
L 165.135068 359.58435 
L 172.380886 359.092326 
L 178.986068 358.899197 
L 190.556182 358.82439 
L 262.964659 358.810862 
L 284.972727 358.810855 
L 284.972727 358.810855 
" style="fill:none;stroke:#aec7e8;stroke-linecap:square;stroke-width:2;"/>
   </g>
   <g id="line2d_19">
    <path clip-path="url(#p8978dd518e)" d="M 159.054545 318.074733 
L 168.857386 318.1287 
L 181.150977 318.11638 
L 181.195159 314.412764 
L 181.476818 282.267664 
L 181.543091 283.263625 
L 181.808182 293.101278 
L 181.924159 296.888572 
L 181.973864 295.395528 
L 182.200295 283.704321 
L 182.283136 285.123984 
L 182.669727 297.698517 
L 182.747045 294.919503 
L 182.962432 283.48315 
L 183.028705 284.298733 
L 183.293795 292.571011 
L 183.409773 296.034305 
L 183.448432 294.03888 
L 183.708 270.850433 
L 183.801886 272.859266 
L 184.160864 288.512893 
L 184.227136 284.705301 
L 184.470136 263.972639 
L 184.536409 265.16777 
L 184.751795 275.519089 
L 184.950614 284.281863 
L 185.005841 283.252634 
L 185.210182 275.90731 
L 185.293023 277.246441 
L 185.624386 289.600858 
L 185.663045 290.788429 
L 185.701705 288.957172 
L 185.988886 262.839283 
L 186.093818 265.132269 
L 186.44175 282.173991 
L 186.541159 278.285853 
L 186.739977 267.910719 
L 186.800727 268.735673 
L 186.971932 275.896278 
L 187.159705 284.800083 
L 187.203886 282.220668 
L 187.507636 251.247652 
L 187.601523 253.078527 
L 187.800341 264.652313 
L 187.943932 273.518517 
L 188.004682 271.266962 
L 188.302909 249.798004 
L 188.396795 251.521573 
L 188.579045 262.177485 
L 188.683977 269.079091 
L 188.744727 266.37363 
L 189.164455 235.911491 
L 189.219682 236.382853 
L 189.330136 240.127517 
L 189.462682 247.355749 
L 189.528955 245.096551 
L 189.672545 228.102758 
L 190.048091 188.669913 
L 190.075705 188.496564 
L 190.130932 188.946421 
L 190.20825 189.979357 
L 190.274523 189.541703 
L 190.440205 187.513133 
L 190.517523 187.982247 
L 190.788136 189.608835 
L 190.915159 189.882235 
L 190.93725 189.729041 
L 191.075318 186.110454 
L 191.229955 183.724906 
L 191.268614 183.789691 
L 191.66625 184.751004 
L 191.677295 184.728236 
L 191.743568 183.832957 
L 191.97 180.824492 
L 192.008659 180.880986 
L 192.411818 181.888301 
L 192.433909 181.727445 
L 192.704523 177.483535 
L 192.803932 177.736355 
L 193.162909 178.797299 
L 193.173955 178.730151 
L 193.433523 174.406649 
L 193.538455 174.67823 
L 193.919523 175.915424 
L 193.941614 175.759229 
L 194.195659 173.153742 
L 194.272977 173.274602 
L 194.670614 174.262728 
L 194.709273 174.028151 
L 194.963318 171.981156 
L 195.035114 172.036754 
L 195.43275 172.522077 
L 195.471409 172.38407 
L 195.891136 170.643507 
L 196.189364 170.42387 
L 196.426841 168.542684 
L 196.52625 166.126853 
L 196.625659 164.036793 
L 196.675364 164.275525 
L 196.874182 166.932552 
L 197.050909 167.928405 
L 197.200023 168.171106 
L 197.448545 169.056324 
L 197.674977 169.492357 
L 197.691545 169.379396 
L 197.9235 167.724898 
L 197.973205 167.821665 
L 198.359795 168.532888 
L 198.431591 168.633628 
L 198.47025 168.523916 
L 198.685636 167.89607 
L 198.724295 167.946726 
L 199.132977 168.461144 
L 199.177159 168.499173 
L 199.204773 168.396809 
L 199.431205 167.506351 
L 199.475386 167.557951 
L 199.712864 167.944941 
L 199.795705 167.870271 
L 199.950341 167.610942 
L 200.182295 166.008796 
L 200.220955 166.047128 
L 200.646205 166.455943 
L 200.933386 166.427311 
L 201.3255 166.648841 
L 201.50775 166.653075 
L 201.828068 166.732085 
L 202.385864 166.900489 
L 202.700659 166.942717 
L 203.103818 166.990331 
L 203.418614 166.70814 
L 203.832818 166.672871 
L 204.208364 166.574064 
L 204.368523 166.271074 
L 204.478977 165.474862 
L 204.633614 162.283418 
L 204.744068 163.013115 
L 205.434409 169.303865 
L 205.88175 170.463463 
L 207.163023 173.074539 
L 209.107023 176.959889 
L 210.156341 179.618118 
L 211.039977 182.471377 
L 211.735841 185.478704 
L 212.266023 188.766991 
L 212.652614 192.612532 
L 212.917705 197.584611 
L 213.099955 205.546716 
L 213.2325 222.659352 
L 213.685364 301.267829 
L 213.950455 305.510554 
L 214.348091 308.215554 
L 214.99425 311.074968 
L 215.706682 313.274674 
L 216.45225 314.885022 
L 217.247523 316.090273 
L 218.114591 317.007412 
L 219.081068 317.706928 
L 220.191136 318.232728 
L 221.511068 318.605705 
L 223.156841 318.8299 
L 225.365932 318.891931 
L 229.010932 318.740886 
L 238.962886 318.273832 
L 247.882091 318.14894 
L 273.065727 318.1136 
L 357.872727 318.111371 
L 357.872727 318.111371 
" style="fill:none;stroke:#ff7f0e;stroke-linecap:square;stroke-width:2;"/>
   </g>
   <g id="line2d_20">
    <path clip-path="url(#p8978dd518e)" d="M 231.954545 275.672326 
L 243.099409 275.713293 
L 254.050977 275.702987 
L 254.095159 272.034457 
L 254.365773 241.724594 
L 254.432045 242.767077 
L 254.746841 254.395848 
L 254.824159 256.585107 
L 254.873864 255.036627 
L 255.094773 243.901136 
L 255.172091 245.216329 
L 255.569727 257.706364 
L 255.641523 255.16314 
L 255.856909 244.035696 
L 255.923182 244.923708 
L 256.265591 255.355965 
L 256.309773 256.448768 
L 256.342909 254.795376 
L 256.596955 231.917848 
L 256.701886 234.379344 
L 257.060864 249.735716 
L 257.116091 246.727925 
L 257.353568 226.03613 
L 257.430886 227.559698 
L 257.740159 242.65278 
L 257.845091 246.454102 
L 257.905841 245.310247 
L 258.104659 238.487716 
L 258.181977 239.776024 
L 258.563045 252.809798 
L 258.618273 249.26594 
L 258.866795 226.270671 
L 258.938591 227.555882 
L 259.187114 239.253548 
L 259.336227 245.564058 
L 259.391455 244.087881 
L 259.617886 232.476109 
L 259.70625 234.139713 
L 260.059705 248.551067 
L 260.114932 244.301823 
L 260.3745 216.927777 
L 260.440773 218.219523 
L 260.634068 228.892484 
L 260.832886 239.829974 
L 260.882591 238.225157 
L 261.147682 219.469461 
L 261.252614 221.981387 
L 261.572932 239.85283 
L 261.65025 235.217514 
L 261.898773 214.521458 
L 261.965045 215.65123 
L 262.130727 224.751138 
L 262.340591 237.902207 
L 262.395818 235.937467 
L 262.655386 218.551938 
L 262.749273 220.604414 
L 262.981227 234.698424 
L 263.086159 240.097784 
L 263.141386 238.251835 
L 263.417523 219.015962 
L 263.522455 221.379343 
L 263.770977 236.444829 
L 263.83725 239.578548 
L 263.898 237.395435 
L 264.196227 215.851541 
L 264.295636 218.124077 
L 264.5055 232.39541 
L 264.610432 237.94914 
L 264.665659 236.435864 
L 264.947318 219.713614 
L 265.057773 222.568675 
L 265.328386 240.135197 
L 265.411227 234.844181 
L 265.880659 195.965887 
L 265.90275 195.886292 
L 265.946932 196.19746 
L 266.051864 199.530597 
L 266.079477 200.649825 
L 266.134705 198.504694 
L 266.256205 179.851475 
L 266.521295 133.571681 
L 266.559955 133.888794 
L 266.725636 138.49847 
L 266.847136 141.233614 
L 266.907886 140.731428 
L 267.106705 138.244673 
L 267.1785 138.438253 
L 267.570614 140.056094 
L 267.60375 139.75663 
L 267.885409 135.669247 
L 267.984818 135.787216 
L 268.33275 136.4535 
L 268.365886 136.290569 
L 268.691727 133.311138 
L 268.802182 133.386746 
L 269.078318 133.72861 
L 269.111455 133.551904 
L 269.453864 131.685219 
L 269.663727 131.772023 
L 269.823886 131.915906 
L 269.834932 131.808038 
L 270.077932 128.933347 
L 270.15525 129.014197 
L 270.574977 129.483361 
L 270.597068 129.274209 
L 270.829023 127.128243 
L 270.878727 127.221905 
L 271.243227 127.864567 
L 271.331591 127.976905 
L 271.364727 127.864447 
L 271.585636 127.008163 
L 271.635341 127.070173 
L 271.983273 127.489154 
L 272.077159 127.550408 
L 272.09925 127.459787 
L 272.336727 126.324084 
L 272.391955 126.389232 
L 272.601818 126.717788 
L 272.668091 126.624248 
L 272.855864 126.133783 
L 273.098864 124.19853 
L 273.132 124.211338 
L 273.363955 124.219122 
L 273.457841 123.939148 
L 273.562773 122.551785 
L 273.684273 120.130438 
L 273.745023 120.369142 
L 273.9825 122.880083 
L 274.330432 125.492388 
L 274.617614 126.020984 
L 275.252727 126.655748 
L 275.517818 126.770427 
L 275.937545 127.185805 
L 276.036955 127.036903 
L 276.296523 126.874819 
L 276.567136 126.982999 
L 276.997909 127.44067 
L 277.787659 128.654763 
L 279.035795 130.991595 
L 280.234227 133.700703 
L 281.239364 136.518399 
L 282.078818 139.543468 
L 282.736023 142.746013 
L 283.233068 146.286102 
L 283.592045 150.516423 
L 283.835045 156.220112 
L 284.000727 166.134639 
L 284.122227 189.796514 
L 284.425977 256.548831 
L 284.657932 262.575171 
L 284.97825 265.28353 
L 285.541568 268.027068 
L 286.237432 270.377533 
L 286.966432 272.088839 
L 287.739614 273.356651 
L 288.579068 274.316837 
L 289.517932 275.054403 
L 290.594864 275.614025 
L 291.870614 276.020305 
L 293.450114 276.281331 
L 295.543227 276.38871 
L 298.790591 276.307485 
L 312.210818 275.795046 
L 324.211705 275.714366 
L 388.849705 275.698567 
L 430.772727 275.698545 
L 430.772727 275.698545 
" style="fill:none;stroke:#ffbb78;stroke-linecap:square;stroke-width:2;"/>
   </g>
   <g id="line2d_21">
    <path clip-path="url(#p8978dd518e)" d="M 304.854545 233.09471 
L 317.402182 233.126016 
L 326.950977 233.117925 
L 326.995159 229.487438 
L 327.254727 200.790738 
L 327.321 201.811145 
L 327.718636 215.711707 
L 327.807 212.304518 
L 327.98925 203.505119 
L 328.05 204.388111 
L 328.469727 217.015831 
L 328.541523 214.414935 
L 328.751386 203.872507 
L 328.817659 204.791659 
L 329.209773 216.038975 
L 329.259477 212.837764 
L 329.491432 192.154796 
L 329.563227 193.550069 
L 329.960864 209.912521 
L 330.027136 205.720269 
L 330.248045 186.973792 
L 330.314318 188.308648 
L 330.640159 203.726665 
L 330.745091 207.223666 
L 330.800318 206.172744 
L 330.999136 199.624707 
L 331.070932 200.790089 
L 331.463045 213.35865 
L 331.51275 210.19369 
L 331.75575 187.781605 
L 331.833068 189.36134 
L 332.236227 206.869085 
L 332.324591 203.494736 
L 332.506841 194.482522 
L 332.573114 195.47983 
L 332.854773 206.224525 
L 332.959705 209.937741 
L 332.992841 207.853811 
L 333.252409 179.442947 
L 333.351818 182.151404 
L 333.732886 202.099052 
L 333.804682 198.701969 
L 334.025591 183.517336 
L 334.097386 184.875512 
L 334.351432 197.703911 
L 334.472932 203.110447 
L 334.517114 200.894469 
L 334.771159 179.725497 
L 334.859523 182.005806 
L 335.235068 202.047065 
L 335.317909 197.960617 
L 335.52225 184.645111 
L 335.588523 185.938533 
L 335.853614 198.936424 
L 335.980636 204.38943 
L 336.030341 202.684321 
L 336.278864 185.782751 
L 336.37275 188.029549 
L 336.731727 204.458904 
L 336.803523 201.193641 
L 337.035477 184.728605 
L 337.112795 186.26639 
L 337.493864 204.250555 
L 337.58775 200.478564 
L 337.786568 189.409969 
L 337.852841 190.512401 
L 338.112409 202.0855 
L 338.222864 206.448632 
L 338.267045 204.272786 
L 338.565273 176.59678 
L 338.659159 179.211343 
L 338.973955 199.327785 
L 339.04575 193.711178 
L 339.310841 168.06396 
L 339.366068 168.972387 
L 339.498614 177.055128 
L 339.736091 195.817145 
L 339.791318 193.479325 
L 340.084023 169.631469 
L 340.177909 172.157425 
L 340.376727 188.353323 
L 340.487182 196.144225 
L 340.542409 193.716692 
L 340.86825 166.974343 
L 340.962136 169.481347 
L 341.127818 184.349664 
L 341.299023 196.611468 
L 341.337682 196.177318 
L 341.525455 190.121557 
L 341.630386 192.278033 
L 341.989364 207.145927 
L 342.055636 203.633638 
L 342.331773 181.984108 
L 342.403568 183.423081 
L 342.63 196.808775 
L 342.729409 201.892862 
L 342.773591 198.845341 
L 343.231977 158.530708 
L 343.254068 158.624274 
L 343.320341 160.169091 
L 343.441841 169.720479 
L 343.524682 176.442066 
L 343.585432 173.711236 
L 343.729023 152.393058 
L 344.054864 84.963007 
L 344.192932 87.855462 
L 344.402795 90.922556 
L 344.612659 91.854394 
L 344.822523 92.467967 
L 344.977159 92.522964 
L 344.988205 92.463915 
L 345.253295 89.887677 
L 345.374795 90.104175 
L 345.501818 90.380501 
L 345.562568 90.264203 
L 345.750341 89.603699 
L 345.993341 86.526375 
L 346.037523 86.568979 
L 346.33575 87.151703 
L 346.429636 87.012102 
L 346.727864 86.753163 
L 347.009523 86.805229 
L 347.263568 86.820981 
L 347.539705 86.692275 
L 347.832409 86.831266 
L 348.075409 86.887889 
L 348.351545 86.722314 
L 348.622159 86.838467 
L 348.8265 87.013256 
L 348.876205 86.907135 
L 349.179955 86.467663 
L 349.422955 86.473207 
L 349.748795 86.740959 
L 350.306591 87.531933 
L 351.234409 89.266998 
L 352.272682 91.688044 
L 353.161841 94.33632 
L 353.896364 97.229115 
L 354.487295 100.464726 
L 354.940159 104.194452 
L 355.266 108.799875 
L 355.486909 115.36409 
L 355.636023 127.509068 
L 355.757523 161.581621 
L 355.978432 211.747727 
L 356.199341 218.760125 
L 356.503091 221.600177 
L 357.055364 224.498417 
L 357.751227 227.039813 
L 358.480227 228.897252 
L 359.253409 230.278704 
L 360.087341 231.324472 
L 361.009636 232.128412 
L 362.058955 232.746402 
L 363.290523 233.207974 
L 364.787182 233.523809 
L 366.720136 233.692854 
L 369.509114 233.694166 
L 377.169136 233.371274 
L 385.221273 233.185113 
L 399.828886 233.123057 
L 503.672727 233.113927 
L 503.672727 233.113927 
" style="fill:none;stroke:#2ca02c;stroke-linecap:square;stroke-width:2;"/>
   </g>
   <g id="line2d_22">
    <path clip-path="url(#p8978dd518e)" d="M 377.754545 190.394313 
L 391.793318 190.418219 
L 399.850977 190.41221 
L 399.895159 186.821469 
L 400.149205 159.553419 
L 400.215477 160.652678 
L 400.618636 174.415211 
L 400.695955 171.617704 
L 400.88925 162.672293 
L 400.95 163.662238 
L 401.369727 175.832566 
L 401.436 173.501383 
L 401.645864 163.198318 
L 401.712136 164.11765 
L 402.10425 175.06479 
L 402.153955 172.306083 
L 402.385909 151.813907 
L 402.463227 153.445477 
L 402.860864 169.38172 
L 402.916091 166.116347 
L 403.142523 147.169321 
L 403.208795 148.611527 
L 403.639568 167.099828 
L 403.7445 164.448938 
L 403.893614 159.848293 
L 403.954364 160.719078 
L 404.363045 173.004836 
L 404.41275 169.730633 
L 404.650227 148.277022 
L 404.722023 149.808445 
L 405.130705 167.039433 
L 405.219068 163.877663 
L 405.401318 155.196131 
L 405.467591 156.245017 
L 405.859705 170.106625 
L 405.909409 166.016018 
L 406.141364 140.337811 
L 406.213159 141.953672 
L 406.627364 162.777156 
L 406.715727 158.350629 
L 406.914545 145.411932 
L 406.975295 146.522932 
L 407.245909 159.190502 
L 407.367409 164.290343 
L 407.411591 162.287266 
L 407.654591 141.998506 
L 407.742955 144.349835 
L 408.129545 163.401345 
L 408.201341 160.233399 
L 408.405682 146.940003 
L 408.477477 148.330077 
L 408.858545 165.22347 
L 408.880636 165.676956 
L 408.930341 163.757813 
L 409.162295 148.124285 
L 409.250659 150.034751 
L 409.631727 165.852872 
L 409.698 162.738199 
L 409.918909 147.563773 
L 409.990705 148.946098 
L 410.388341 165.798127 
L 410.482227 162.130328 
L 410.67 152.115427 
L 410.736273 153.137837 
L 411.017932 164.340718 
L 411.122864 167.868952 
L 411.161523 165.913991 
L 411.432136 140.810444 
L 411.526023 143.482916 
L 411.868432 161.920046 
L 411.923659 158.152602 
L 412.166659 133.438337 
L 412.238455 135.194369 
L 412.509068 152.746312 
L 412.630568 159.214034 
L 412.680273 157.01623 
L 412.934318 136.456297 
L 413.022682 139.007967 
L 413.381659 160.344993 
L 413.453455 156.003971 
L 413.685409 136.56578 
L 413.751682 138.098996 
L 414.005727 154.286305 
L 414.171409 161.836092 
L 414.221114 160.97244 
L 414.419932 154.038692 
L 414.508295 155.62703 
L 414.883841 169.126551 
L 414.944591 166.175593 
L 415.193114 147.223895 
L 415.270432 148.858119 
L 415.623886 164.958348 
L 415.684636 160.027905 
L 415.944205 132.363093 
L 416.004955 133.613113 
L 416.176159 144.975553 
L 416.3805 157.891941 
L 416.424682 155.262446 
L 416.706341 127.847544 
L 416.789182 130.295653 
L 417.043227 150.905135 
L 417.153682 157.063725 
L 417.208909 155.005398 
L 417.440864 139.708628 
L 417.523705 142.081434 
L 417.888205 162.611322 
L 417.948955 158.960083 
L 418.208523 136.0168 
L 418.280318 137.935972 
L 418.633773 160.42172 
L 418.705568 154.225815 
L 418.981705 126.397966 
L 419.031409 127.32571 
L 419.147386 135.671663 
L 419.533977 163.875127 
L 419.904 175.167193 
L 420.279545 180.614491 
L 420.699273 183.599146 
L 421.102432 185.094539 
L 421.759636 186.431114 
L 423.957682 188.647615 
L 424.979386 189.32581 
L 426.150205 189.831112 
L 427.586114 190.199903 
L 429.485932 190.445417 
L 432.297 190.564679 
L 437.979886 190.535395 
L 455.553205 190.420072 
L 538.101409 190.408579 
L 576.572727 190.408576 
L 576.572727 190.408576 
" style="fill:none;stroke:#98df8a;stroke-linecap:square;stroke-width:2;"/>
   </g>
   <g id="patch_3">
    <path d="M 97.2 367.2 
L 97.2 64.8 
" style="fill:none;stroke:#000000;stroke-linecap:square;stroke-linejoin:miter;stroke-width:0.8;"/>
   </g>
   <g id="patch_4">
    <path d="M 97.2 367.2 
L 583.2 367.2 
" style="fill:none;stroke:#000000;stroke-linecap:square;stroke-linejoin:miter;stroke-width:0.8;"/>
   </g>
   <g id="text_19">
    <!-- Voltage Traces at Basal Dendrite (loc:0.5)  -->
    <g transform="translate(77.151172 30.805469)scale(0.25 -0.25)">
     <defs>
      <path d="M 1831 0 
L 50 4666 
L 709 4666 
L 2188 738 
L 3669 4666 
L 4325 4666 
L 2547 0 
L 1831 0 
z
" id="DejaVuSans-56" transform="scale(0.015625)"/>
      <path d="M 1959 3097 
Q 1497 3097 1228 2736 
Q 959 2375 959 1747 
Q 959 1119 1226 758 
Q 1494 397 1959 397 
Q 2419 397 2687 759 
Q 2956 1122 2956 1747 
Q 2956 2369 2687 2733 
Q 2419 3097 1959 3097 
z
M 1959 3584 
Q 2709 3584 3137 3096 
Q 3566 2609 3566 1747 
Q 3566 888 3137 398 
Q 2709 -91 1959 -91 
Q 1206 -91 779 398 
Q 353 888 353 1747 
Q 353 2609 779 3096 
Q 1206 3584 1959 3584 
z
" id="DejaVuSans-6f" transform="scale(0.015625)"/>
      <path d="M 603 4863 
L 1178 4863 
L 1178 0 
L 603 0 
L 603 4863 
z
" id="DejaVuSans-6c" transform="scale(0.015625)"/>
      <path d="M 1172 4494 
L 1172 3500 
L 2356 3500 
L 2356 3053 
L 1172 3053 
L 1172 1153 
Q 1172 725 1289 603 
Q 1406 481 1766 481 
L 2356 481 
L 2356 0 
L 1766 0 
Q 1100 0 847 248 
Q 594 497 594 1153 
L 594 3053 
L 172 3053 
L 172 3500 
L 594 3500 
L 594 4494 
L 1172 4494 
z
" id="DejaVuSans-74" transform="scale(0.015625)"/>
      <path d="M 2194 1759 
Q 1497 1759 1228 1600 
Q 959 1441 959 1056 
Q 959 750 1161 570 
Q 1363 391 1709 391 
Q 2188 391 2477 730 
Q 2766 1069 2766 1631 
L 2766 1759 
L 2194 1759 
z
M 3341 1997 
L 3341 0 
L 2766 0 
L 2766 531 
Q 2569 213 2275 61 
Q 1981 -91 1556 -91 
Q 1019 -91 701 211 
Q 384 513 384 1019 
Q 384 1609 779 1909 
Q 1175 2209 1959 2209 
L 2766 2209 
L 2766 2266 
Q 2766 2663 2505 2880 
Q 2244 3097 1772 3097 
Q 1472 3097 1187 3025 
Q 903 2953 641 2809 
L 641 3341 
Q 956 3463 1253 3523 
Q 1550 3584 1831 3584 
Q 2591 3584 2966 3190 
Q 3341 2797 3341 1997 
z
" id="DejaVuSans-61" transform="scale(0.015625)"/>
      <path d="M 2906 1791 
Q 2906 2416 2648 2759 
Q 2391 3103 1925 3103 
Q 1463 3103 1205 2759 
Q 947 2416 947 1791 
Q 947 1169 1205 825 
Q 1463 481 1925 481 
Q 2391 481 2648 825 
Q 2906 1169 2906 1791 
z
M 3481 434 
Q 3481 -459 3084 -895 
Q 2688 -1331 1869 -1331 
Q 1566 -1331 1297 -1286 
Q 1028 -1241 775 -1147 
L 775 -588 
Q 1028 -725 1275 -790 
Q 1522 -856 1778 -856 
Q 2344 -856 2625 -561 
Q 2906 -266 2906 331 
L 2906 616 
Q 2728 306 2450 153 
Q 2172 0 1784 0 
Q 1141 0 747 490 
Q 353 981 353 1791 
Q 353 2603 747 3093 
Q 1141 3584 1784 3584 
Q 2172 3584 2450 3431 
Q 2728 3278 2906 2969 
L 2906 3500 
L 3481 3500 
L 3481 434 
z
" id="DejaVuSans-67" transform="scale(0.015625)"/>
      <path d="M 2631 2963 
Q 2534 3019 2420 3045 
Q 2306 3072 2169 3072 
Q 1681 3072 1420 2755 
Q 1159 2438 1159 1844 
L 1159 0 
L 581 0 
L 581 3500 
L 1159 3500 
L 1159 2956 
Q 1341 3275 1631 3429 
Q 1922 3584 2338 3584 
Q 2397 3584 2469 3576 
Q 2541 3569 2628 3553 
L 2631 2963 
z
" id="DejaVuSans-72" transform="scale(0.015625)"/>
      <path d="M 3122 3366 
L 3122 2828 
Q 2878 2963 2633 3030 
Q 2388 3097 2138 3097 
Q 1578 3097 1268 2742 
Q 959 2388 959 1747 
Q 959 1106 1268 751 
Q 1578 397 2138 397 
Q 2388 397 2633 464 
Q 2878 531 3122 666 
L 3122 134 
Q 2881 22 2623 -34 
Q 2366 -91 2075 -91 
Q 1284 -91 818 406 
Q 353 903 353 1747 
Q 353 2603 823 3093 
Q 1294 3584 2113 3584 
Q 2378 3584 2631 3529 
Q 2884 3475 3122 3366 
z
" id="DejaVuSans-63" transform="scale(0.015625)"/>
      <path d="M 1259 2228 
L 1259 519 
L 2272 519 
Q 2781 519 3026 730 
Q 3272 941 3272 1375 
Q 3272 1813 3026 2020 
Q 2781 2228 2272 2228 
L 1259 2228 
z
M 1259 4147 
L 1259 2741 
L 2194 2741 
Q 2656 2741 2882 2914 
Q 3109 3088 3109 3444 
Q 3109 3797 2882 3972 
Q 2656 4147 2194 4147 
L 1259 4147 
z
M 628 4666 
L 2241 4666 
Q 2963 4666 3353 4366 
Q 3744 4066 3744 3513 
Q 3744 3084 3544 2831 
Q 3344 2578 2956 2516 
Q 3422 2416 3680 2098 
Q 3938 1781 3938 1306 
Q 3938 681 3513 340 
Q 3088 0 2303 0 
L 628 0 
L 628 4666 
z
" id="DejaVuSans-42" transform="scale(0.015625)"/>
      <path d="M 1259 4147 
L 1259 519 
L 2022 519 
Q 2988 519 3436 956 
Q 3884 1394 3884 2338 
Q 3884 3275 3436 3711 
Q 2988 4147 2022 4147 
L 1259 4147 
z
M 628 4666 
L 1925 4666 
Q 3281 4666 3915 4102 
Q 4550 3538 4550 2338 
Q 4550 1131 3912 565 
Q 3275 0 1925 0 
L 628 0 
L 628 4666 
z
" id="DejaVuSans-44" transform="scale(0.015625)"/>
      <path d="M 3513 2113 
L 3513 0 
L 2938 0 
L 2938 2094 
Q 2938 2591 2744 2837 
Q 2550 3084 2163 3084 
Q 1697 3084 1428 2787 
Q 1159 2491 1159 1978 
L 1159 0 
L 581 0 
L 581 3500 
L 1159 3500 
L 1159 2956 
Q 1366 3272 1645 3428 
Q 1925 3584 2291 3584 
Q 2894 3584 3203 3211 
Q 3513 2838 3513 2113 
z
" id="DejaVuSans-6e" transform="scale(0.015625)"/>
      <path d="M 2906 2969 
L 2906 4863 
L 3481 4863 
L 3481 0 
L 2906 0 
L 2906 525 
Q 2725 213 2448 61 
Q 2172 -91 1784 -91 
Q 1150 -91 751 415 
Q 353 922 353 1747 
Q 353 2572 751 3078 
Q 1150 3584 1784 3584 
Q 2172 3584 2448 3432 
Q 2725 3281 2906 2969 
z
M 947 1747 
Q 947 1113 1208 752 
Q 1469 391 1925 391 
Q 2381 391 2643 752 
Q 2906 1113 2906 1747 
Q 2906 2381 2643 2742 
Q 2381 3103 1925 3103 
Q 1469 3103 1208 2742 
Q 947 2381 947 1747 
z
" id="DejaVuSans-64" transform="scale(0.015625)"/>
      <path d="M 750 794 
L 1409 794 
L 1409 0 
L 750 0 
L 750 794 
z
M 750 3309 
L 1409 3309 
L 1409 2516 
L 750 2516 
L 750 3309 
z
" id="DejaVuSans-3a" transform="scale(0.015625)"/>
      <path d="M 684 794 
L 1344 794 
L 1344 0 
L 684 0 
L 684 794 
z
" id="DejaVuSans-2e" transform="scale(0.015625)"/>
     </defs>
     <use xlink:href="#DejaVuSans-56"/>
     <use x="60.658203" xlink:href="#DejaVuSans-6f"/>
     <use x="121.839844" xlink:href="#DejaVuSans-6c"/>
     <use x="149.623047" xlink:href="#DejaVuSans-74"/>
     <use x="188.832031" xlink:href="#DejaVuSans-61"/>
     <use x="250.111328" xlink:href="#DejaVuSans-67"/>
     <use x="313.587891" xlink:href="#DejaVuSans-65"/>
     <use x="375.111328" xlink:href="#DejaVuSans-20"/>
     <use x="406.898438" xlink:href="#DejaVuSans-54"/>
     <use x="453.232422" xlink:href="#DejaVuSans-72"/>
     <use x="494.345703" xlink:href="#DejaVuSans-61"/>
     <use x="555.625" xlink:href="#DejaVuSans-63"/>
     <use x="610.605469" xlink:href="#DejaVuSans-65"/>
     <use x="672.128906" xlink:href="#DejaVuSans-73"/>
     <use x="724.228516" xlink:href="#DejaVuSans-20"/>
     <use x="756.015625" xlink:href="#DejaVuSans-61"/>
     <use x="817.294922" xlink:href="#DejaVuSans-74"/>
     <use x="856.503906" xlink:href="#DejaVuSans-20"/>
     <use x="888.291016" xlink:href="#DejaVuSans-42"/>
     <use x="956.894531" xlink:href="#DejaVuSans-61"/>
     <use x="1018.173828" xlink:href="#DejaVuSans-73"/>
     <use x="1070.273438" xlink:href="#DejaVuSans-61"/>
     <use x="1131.552734" xlink:href="#DejaVuSans-6c"/>
     <use x="1159.335938" xlink:href="#DejaVuSans-20"/>
     <use x="1191.123047" xlink:href="#DejaVuSans-44"/>
     <use x="1268.125" xlink:href="#DejaVuSans-65"/>
     <use x="1329.648438" xlink:href="#DejaVuSans-6e"/>
     <use x="1393.027344" xlink:href="#DejaVuSans-64"/>
     <use x="1456.503906" xlink:href="#DejaVuSans-72"/>
     <use x="1497.617188" xlink:href="#DejaVuSans-69"/>
     <use x="1525.400391" xlink:href="#DejaVuSans-74"/>
     <use x="1564.609375" xlink:href="#DejaVuSans-65"/>
     <use x="1626.132812" xlink:href="#DejaVuSans-20"/>
     <use x="1657.919922" xlink:href="#DejaVuSans-28"/>
     <use x="1696.933594" xlink:href="#DejaVuSans-6c"/>
     <use x="1724.716797" xlink:href="#DejaVuSans-6f"/>
     <use x="1785.898438" xlink:href="#DejaVuSans-63"/>
     <use x="1840.878906" xlink:href="#DejaVuSans-3a"/>
     <use x="1874.570312" xlink:href="#DejaVuSans-30"/>
     <use x="1938.193359" xlink:href="#DejaVuSans-2e"/>
     <use x="1969.980469" xlink:href="#DejaVuSans-35"/>
     <use x="2033.603516" xlink:href="#DejaVuSans-29"/>
     <use x="2072.617188" xlink:href="#DejaVuSans-20"/>
    </g>
    <!--  -->
    <g transform="translate(340.2 58.8)scale(0.25 -0.25)"/>
   </g>
  </g>
 </g>
 <defs>
  <clipPath id="p8978dd518e">
   <rect height="302.4" width="486" x="97.2" y="64.8"/>
  </clipPath>
 </defs>
</svg>
