<?xml version="1.0" encoding="utf-8" standalone="no"?>
<!DOCTYPE svg PUBLIC "-//W3C//DTD SVG 1.1//EN"
  "http://www.w3.org/Graphics/SVG/1.1/DTD/svg11.dtd">
<svg height="432pt" version="1.1" viewBox="0 0 648 432" width="648pt" xmlns="http://www.w3.org/2000/svg" xmlns:xlink="http://www.w3.org/1999/xlink">
 <metadata>
  <rdf:RDF xmlns:cc="http://creativecommons.org/ns#" xmlns:dc="http://purl.org/dc/elements/1.1/" xmlns:rdf="http://www.w3.org/1999/02/22-rdf-syntax-ns#">
   <cc:Work>
    <dc:type rdf:resource="http://purl.org/dc/dcmitype/StillImage"/>
    <dc:date>2023-05-10T13:57:57.837553</dc:date>
    <dc:format>image/svg+xml</dc:format>
    <dc:creator>
     <cc:Agent>
      <dc:title>Matplotlib v3.4.3, https://matplotlib.org/</dc:title>
     </cc:Agent>
    </dc:creator>
   </cc:Work>
  </rdf:RDF>
 </metadata>
 <defs>
  <style type="text/css">*{stroke-linecap:butt;stroke-linejoin:round;}</style>
 </defs>
 <g id="figure_1">
  <g id="patch_1">
   <path d="M 0 432 
L 648 432 
L 648 0 
L 0 0 
z
" style="fill:#ffffff;"/>
  </g>
  <g id="axes_1">
   <g id="patch_2">
    <path d="M 97.2 367.2 
L 583.2 367.2 
L 583.2 64.8 
L 97.2 64.8 
z
" style="fill:#ffffff;"/>
   </g>
   <g id="matplotlib.axis_1">
    <g id="xtick_1">
     <g id="line2d_1">
      <defs>
       <path d="M 0 0 
L 0 3.5 
" id="mc9441643eb" style="stroke:#000000;stroke-width:0.8;"/>
      </defs>
      <g>
       <use style="stroke:#000000;stroke-width:0.8;" x="173.936842" xlink:href="#mc9441643eb" y="367.2"/>
      </g>
     </g>
     <g id="text_1">
      <!-- 200 -->
      <g transform="translate(151.986217 391.676406)scale(0.23 -0.23)">
       <defs>
        <path d="M 1228 531 
L 3431 531 
L 3431 0 
L 469 0 
L 469 531 
Q 828 903 1448 1529 
Q 2069 2156 2228 2338 
Q 2531 2678 2651 2914 
Q 2772 3150 2772 3378 
Q 2772 3750 2511 3984 
Q 2250 4219 1831 4219 
Q 1534 4219 1204 4116 
Q 875 4013 500 3803 
L 500 4441 
Q 881 4594 1212 4672 
Q 1544 4750 1819 4750 
Q 2544 4750 2975 4387 
Q 3406 4025 3406 3419 
Q 3406 3131 3298 2873 
Q 3191 2616 2906 2266 
Q 2828 2175 2409 1742 
Q 1991 1309 1228 531 
z
" id="DejaVuSans-32" transform="scale(0.015625)"/>
        <path d="M 2034 4250 
Q 1547 4250 1301 3770 
Q 1056 3291 1056 2328 
Q 1056 1369 1301 889 
Q 1547 409 2034 409 
Q 2525 409 2770 889 
Q 3016 1369 3016 2328 
Q 3016 3291 2770 3770 
Q 2525 4250 2034 4250 
z
M 2034 4750 
Q 2819 4750 3233 4129 
Q 3647 3509 3647 2328 
Q 3647 1150 3233 529 
Q 2819 -91 2034 -91 
Q 1250 -91 836 529 
Q 422 1150 422 2328 
Q 422 3509 836 4129 
Q 1250 4750 2034 4750 
z
" id="DejaVuSans-30" transform="scale(0.015625)"/>
       </defs>
       <use xlink:href="#DejaVuSans-32"/>
       <use x="63.623047" xlink:href="#DejaVuSans-30"/>
       <use x="127.246094" xlink:href="#DejaVuSans-30"/>
      </g>
     </g>
    </g>
    <g id="xtick_2">
     <g id="line2d_2">
      <g>
       <use style="stroke:#000000;stroke-width:0.8;" x="276.252632" xlink:href="#mc9441643eb" y="367.2"/>
      </g>
     </g>
     <g id="text_2">
      <!-- 400 -->
      <g transform="translate(254.302007 391.676406)scale(0.23 -0.23)">
       <defs>
        <path d="M 2419 4116 
L 825 1625 
L 2419 1625 
L 2419 4116 
z
M 2253 4666 
L 3047 4666 
L 3047 1625 
L 3713 1625 
L 3713 1100 
L 3047 1100 
L 3047 0 
L 2419 0 
L 2419 1100 
L 313 1100 
L 313 1709 
L 2253 4666 
z
" id="DejaVuSans-34" transform="scale(0.015625)"/>
       </defs>
       <use xlink:href="#DejaVuSans-34"/>
       <use x="63.623047" xlink:href="#DejaVuSans-30"/>
       <use x="127.246094" xlink:href="#DejaVuSans-30"/>
      </g>
     </g>
    </g>
    <g id="xtick_3">
     <g id="line2d_3">
      <g>
       <use style="stroke:#000000;stroke-width:0.8;" x="378.568421" xlink:href="#mc9441643eb" y="367.2"/>
      </g>
     </g>
     <g id="text_3">
      <!-- 600 -->
      <g transform="translate(356.617796 391.676406)scale(0.23 -0.23)">
       <defs>
        <path d="M 2113 2584 
Q 1688 2584 1439 2293 
Q 1191 2003 1191 1497 
Q 1191 994 1439 701 
Q 1688 409 2113 409 
Q 2538 409 2786 701 
Q 3034 994 3034 1497 
Q 3034 2003 2786 2293 
Q 2538 2584 2113 2584 
z
M 3366 4563 
L 3366 3988 
Q 3128 4100 2886 4159 
Q 2644 4219 2406 4219 
Q 1781 4219 1451 3797 
Q 1122 3375 1075 2522 
Q 1259 2794 1537 2939 
Q 1816 3084 2150 3084 
Q 2853 3084 3261 2657 
Q 3669 2231 3669 1497 
Q 3669 778 3244 343 
Q 2819 -91 2113 -91 
Q 1303 -91 875 529 
Q 447 1150 447 2328 
Q 447 3434 972 4092 
Q 1497 4750 2381 4750 
Q 2619 4750 2861 4703 
Q 3103 4656 3366 4563 
z
" id="DejaVuSans-36" transform="scale(0.015625)"/>
       </defs>
       <use xlink:href="#DejaVuSans-36"/>
       <use x="63.623047" xlink:href="#DejaVuSans-30"/>
       <use x="127.246094" xlink:href="#DejaVuSans-30"/>
      </g>
     </g>
    </g>
    <g id="xtick_4">
     <g id="line2d_4">
      <g>
       <use style="stroke:#000000;stroke-width:0.8;" x="480.884211" xlink:href="#mc9441643eb" y="367.2"/>
      </g>
     </g>
     <g id="text_4">
      <!-- 800 -->
      <g transform="translate(458.933586 391.676406)scale(0.23 -0.23)">
       <defs>
        <path d="M 2034 2216 
Q 1584 2216 1326 1975 
Q 1069 1734 1069 1313 
Q 1069 891 1326 650 
Q 1584 409 2034 409 
Q 2484 409 2743 651 
Q 3003 894 3003 1313 
Q 3003 1734 2745 1975 
Q 2488 2216 2034 2216 
z
M 1403 2484 
Q 997 2584 770 2862 
Q 544 3141 544 3541 
Q 544 4100 942 4425 
Q 1341 4750 2034 4750 
Q 2731 4750 3128 4425 
Q 3525 4100 3525 3541 
Q 3525 3141 3298 2862 
Q 3072 2584 2669 2484 
Q 3125 2378 3379 2068 
Q 3634 1759 3634 1313 
Q 3634 634 3220 271 
Q 2806 -91 2034 -91 
Q 1263 -91 848 271 
Q 434 634 434 1313 
Q 434 1759 690 2068 
Q 947 2378 1403 2484 
z
M 1172 3481 
Q 1172 3119 1398 2916 
Q 1625 2713 2034 2713 
Q 2441 2713 2670 2916 
Q 2900 3119 2900 3481 
Q 2900 3844 2670 4047 
Q 2441 4250 2034 4250 
Q 1625 4250 1398 4047 
Q 1172 3844 1172 3481 
z
" id="DejaVuSans-38" transform="scale(0.015625)"/>
       </defs>
       <use xlink:href="#DejaVuSans-38"/>
       <use x="63.623047" xlink:href="#DejaVuSans-30"/>
       <use x="127.246094" xlink:href="#DejaVuSans-30"/>
      </g>
     </g>
    </g>
    <g id="xtick_5">
     <g id="line2d_5">
      <g>
       <use style="stroke:#000000;stroke-width:0.8;" x="583.2" xlink:href="#mc9441643eb" y="367.2"/>
      </g>
     </g>
     <g id="text_5">
      <!-- 1000 -->
      <g transform="translate(553.9325 391.676406)scale(0.23 -0.23)">
       <defs>
        <path d="M 794 531 
L 1825 531 
L 1825 4091 
L 703 3866 
L 703 4441 
L 1819 4666 
L 2450 4666 
L 2450 531 
L 3481 531 
L 3481 0 
L 794 0 
L 794 531 
z
" id="DejaVuSans-31" transform="scale(0.015625)"/>
       </defs>
       <use xlink:href="#DejaVuSans-31"/>
       <use x="63.623047" xlink:href="#DejaVuSans-30"/>
       <use x="127.246094" xlink:href="#DejaVuSans-30"/>
       <use x="190.869141" xlink:href="#DejaVuSans-30"/>
      </g>
     </g>
    </g>
    <g id="text_6">
     <!-- Time (ms) -->
     <g transform="translate(282.241797 417.936094)scale(0.23 -0.23)">
      <defs>
       <path d="M -19 4666 
L 3928 4666 
L 3928 4134 
L 2272 4134 
L 2272 0 
L 1638 0 
L 1638 4134 
L -19 4134 
L -19 4666 
z
" id="DejaVuSans-54" transform="scale(0.015625)"/>
       <path d="M 603 3500 
L 1178 3500 
L 1178 0 
L 603 0 
L 603 3500 
z
M 603 4863 
L 1178 4863 
L 1178 4134 
L 603 4134 
L 603 4863 
z
" id="DejaVuSans-69" transform="scale(0.015625)"/>
       <path d="M 3328 2828 
Q 3544 3216 3844 3400 
Q 4144 3584 4550 3584 
Q 5097 3584 5394 3201 
Q 5691 2819 5691 2113 
L 5691 0 
L 5113 0 
L 5113 2094 
Q 5113 2597 4934 2840 
Q 4756 3084 4391 3084 
Q 3944 3084 3684 2787 
Q 3425 2491 3425 1978 
L 3425 0 
L 2847 0 
L 2847 2094 
Q 2847 2600 2669 2842 
Q 2491 3084 2119 3084 
Q 1678 3084 1418 2786 
Q 1159 2488 1159 1978 
L 1159 0 
L 581 0 
L 581 3500 
L 1159 3500 
L 1159 2956 
Q 1356 3278 1631 3431 
Q 1906 3584 2284 3584 
Q 2666 3584 2933 3390 
Q 3200 3197 3328 2828 
z
" id="DejaVuSans-6d" transform="scale(0.015625)"/>
       <path d="M 3597 1894 
L 3597 1613 
L 953 1613 
Q 991 1019 1311 708 
Q 1631 397 2203 397 
Q 2534 397 2845 478 
Q 3156 559 3463 722 
L 3463 178 
Q 3153 47 2828 -22 
Q 2503 -91 2169 -91 
Q 1331 -91 842 396 
Q 353 884 353 1716 
Q 353 2575 817 3079 
Q 1281 3584 2069 3584 
Q 2775 3584 3186 3129 
Q 3597 2675 3597 1894 
z
M 3022 2063 
Q 3016 2534 2758 2815 
Q 2500 3097 2075 3097 
Q 1594 3097 1305 2825 
Q 1016 2553 972 2059 
L 3022 2063 
z
" id="DejaVuSans-65" transform="scale(0.015625)"/>
       <path id="DejaVuSans-20" transform="scale(0.015625)"/>
       <path d="M 1984 4856 
Q 1566 4138 1362 3434 
Q 1159 2731 1159 2009 
Q 1159 1288 1364 580 
Q 1569 -128 1984 -844 
L 1484 -844 
Q 1016 -109 783 600 
Q 550 1309 550 2009 
Q 550 2706 781 3412 
Q 1013 4119 1484 4856 
L 1984 4856 
z
" id="DejaVuSans-28" transform="scale(0.015625)"/>
       <path d="M 2834 3397 
L 2834 2853 
Q 2591 2978 2328 3040 
Q 2066 3103 1784 3103 
Q 1356 3103 1142 2972 
Q 928 2841 928 2578 
Q 928 2378 1081 2264 
Q 1234 2150 1697 2047 
L 1894 2003 
Q 2506 1872 2764 1633 
Q 3022 1394 3022 966 
Q 3022 478 2636 193 
Q 2250 -91 1575 -91 
Q 1294 -91 989 -36 
Q 684 19 347 128 
L 347 722 
Q 666 556 975 473 
Q 1284 391 1588 391 
Q 1994 391 2212 530 
Q 2431 669 2431 922 
Q 2431 1156 2273 1281 
Q 2116 1406 1581 1522 
L 1381 1569 
Q 847 1681 609 1914 
Q 372 2147 372 2553 
Q 372 3047 722 3315 
Q 1072 3584 1716 3584 
Q 2034 3584 2315 3537 
Q 2597 3491 2834 3397 
z
" id="DejaVuSans-73" transform="scale(0.015625)"/>
       <path d="M 513 4856 
L 1013 4856 
Q 1481 4119 1714 3412 
Q 1947 2706 1947 2009 
Q 1947 1309 1714 600 
Q 1481 -109 1013 -844 
L 513 -844 
Q 928 -128 1133 580 
Q 1338 1288 1338 2009 
Q 1338 2731 1133 3434 
Q 928 4138 513 4856 
z
" id="DejaVuSans-29" transform="scale(0.015625)"/>
      </defs>
      <use xlink:href="#DejaVuSans-54"/>
      <use x="57.958984" xlink:href="#DejaVuSans-69"/>
      <use x="85.742188" xlink:href="#DejaVuSans-6d"/>
      <use x="183.154297" xlink:href="#DejaVuSans-65"/>
      <use x="244.677734" xlink:href="#DejaVuSans-20"/>
      <use x="276.464844" xlink:href="#DejaVuSans-28"/>
      <use x="315.478516" xlink:href="#DejaVuSans-6d"/>
      <use x="412.890625" xlink:href="#DejaVuSans-73"/>
      <use x="464.990234" xlink:href="#DejaVuSans-29"/>
     </g>
    </g>
   </g>
   <g id="matplotlib.axis_2">
    <g id="ytick_1">
     <g id="line2d_6">
      <defs>
       <path d="M 0 0 
L -3.5 0 
" id="mec2802d46c" style="stroke:#000000;stroke-width:0.8;"/>
      </defs>
      <g>
       <use style="stroke:#000000;stroke-width:0.8;" x="97.2" xlink:href="#mec2802d46c" y="367.2"/>
      </g>
     </g>
     <g id="text_7">
      <!-- −80 -->
      <g transform="translate(41.659219 375.938203)scale(0.23 -0.23)">
       <defs>
        <path d="M 678 2272 
L 4684 2272 
L 4684 1741 
L 678 1741 
L 678 2272 
z
" id="DejaVuSans-2212" transform="scale(0.015625)"/>
       </defs>
       <use xlink:href="#DejaVuSans-2212"/>
       <use x="83.789062" xlink:href="#DejaVuSans-38"/>
       <use x="147.412109" xlink:href="#DejaVuSans-30"/>
      </g>
     </g>
    </g>
    <g id="ytick_2">
     <g id="line2d_7">
      <g>
       <use style="stroke:#000000;stroke-width:0.8;" x="97.2" xlink:href="#mec2802d46c" y="320.676923"/>
      </g>
     </g>
     <g id="text_8">
      <!-- −60 -->
      <g transform="translate(41.659219 329.415126)scale(0.23 -0.23)">
       <use xlink:href="#DejaVuSans-2212"/>
       <use x="83.789062" xlink:href="#DejaVuSans-36"/>
       <use x="147.412109" xlink:href="#DejaVuSans-30"/>
      </g>
     </g>
    </g>
    <g id="ytick_3">
     <g id="line2d_8">
      <g>
       <use style="stroke:#000000;stroke-width:0.8;" x="97.2" xlink:href="#mec2802d46c" y="274.153846"/>
      </g>
     </g>
     <g id="text_9">
      <!-- −40 -->
      <g transform="translate(41.659219 282.892049)scale(0.23 -0.23)">
       <use xlink:href="#DejaVuSans-2212"/>
       <use x="83.789062" xlink:href="#DejaVuSans-34"/>
       <use x="147.412109" xlink:href="#DejaVuSans-30"/>
      </g>
     </g>
    </g>
    <g id="ytick_4">
     <g id="line2d_9">
      <g>
       <use style="stroke:#000000;stroke-width:0.8;" x="97.2" xlink:href="#mec2802d46c" y="227.630769"/>
      </g>
     </g>
     <g id="text_10">
      <!-- −20 -->
      <g transform="translate(41.659219 236.368972)scale(0.23 -0.23)">
       <use xlink:href="#DejaVuSans-2212"/>
       <use x="83.789062" xlink:href="#DejaVuSans-32"/>
       <use x="147.412109" xlink:href="#DejaVuSans-30"/>
      </g>
     </g>
    </g>
    <g id="ytick_5">
     <g id="line2d_10">
      <g>
       <use style="stroke:#000000;stroke-width:0.8;" x="97.2" xlink:href="#mec2802d46c" y="181.107692"/>
      </g>
     </g>
     <g id="text_11">
      <!-- 0 -->
      <g transform="translate(75.56625 189.845895)scale(0.23 -0.23)">
       <use xlink:href="#DejaVuSans-30"/>
      </g>
     </g>
    </g>
    <g id="ytick_6">
     <g id="line2d_11">
      <g>
       <use style="stroke:#000000;stroke-width:0.8;" x="97.2" xlink:href="#mec2802d46c" y="134.584615"/>
      </g>
     </g>
     <g id="text_12">
      <!-- 20 -->
      <g transform="translate(60.9325 143.322819)scale(0.23 -0.23)">
       <use xlink:href="#DejaVuSans-32"/>
       <use x="63.623047" xlink:href="#DejaVuSans-30"/>
      </g>
     </g>
    </g>
    <g id="ytick_7">
     <g id="line2d_12">
      <g>
       <use style="stroke:#000000;stroke-width:0.8;" x="97.2" xlink:href="#mec2802d46c" y="88.061538"/>
      </g>
     </g>
     <g id="text_13">
      <!-- 40 -->
      <g transform="translate(60.9325 96.799742)scale(0.23 -0.23)">
       <use xlink:href="#DejaVuSans-34"/>
       <use x="63.623047" xlink:href="#DejaVuSans-30"/>
      </g>
     </g>
    </g>
   </g>
   <g id="line2d_13">
    <path clip-path="url(#p1f293555e1)" d="M 97.187211 351.804913 
L 122.791737 351.787447 
L 122.868474 348.089314 
L 123.188211 316.417401 
L 123.520737 293.719662 
L 123.687 292.312848 
L 123.699789 292.323156 
L 123.776526 292.636761 
L 123.955579 294.602539 
L 124.364842 302.22269 
L 124.761316 310.434735 
L 124.812474 309.556065 
L 124.978737 301.064789 
L 125.515895 273.114939 
L 125.656579 272.411437 
L 125.682158 272.436539 
L 125.784474 272.89644 
L 126.001895 275.294345 
L 126.436737 283.156253 
L 126.718105 289.005322 
L 126.782053 288.112512 
L 126.948316 280.178735 
L 127.587789 247.033949 
L 127.869158 243.844023 
L 127.997053 243.578097 
L 128.035421 243.607745 
L 128.163316 244.001684 
L 128.419105 245.743764 
L 128.674895 248.024701 
L 128.726053 247.44615 
L 128.892316 241.856255 
L 129.378316 225.07516 
L 129.544579 224.468372 
L 129.557368 224.473203 
L 129.877105 224.484074 
L 130.299158 225.021906 
L 130.618895 225.367944 
L 130.631684 225.298681 
L 130.759579 223.246855 
L 131.271158 214.583374 
L 131.386263 214.457229 
L 131.411842 214.473231 
L 131.578105 214.772913 
L 131.808316 215.08476 
L 132.140842 214.91121 
L 132.601263 214.511318 
L 132.857053 211.345098 
L 133.215158 208.296184 
L 133.343053 208.300093 
L 133.598842 208.67232 
L 133.893 208.985374 
L 134.532474 208.535001 
L 134.660368 207.57009 
L 135.133579 204.255625 
L 135.274263 204.245792 
L 135.606789 204.612911 
L 135.990474 204.929463 
L 136.514842 204.496949 
L 137.154316 201.399036 
L 137.192684 201.411006 
L 137.538 201.693796 
L 138.087947 202.080439 
L 138.471632 201.778479 
L 139.111105 199.333536 
L 139.123895 199.336698 
L 139.482 199.563677 
L 140.198211 199.975906 
L 140.428421 199.752575 
L 141.016737 197.764385 
L 141.285316 197.868362 
L 142.346842 198.349341 
L 142.538684 197.642464 
L 142.947947 196.53214 
L 143.190947 196.588732 
L 144.316421 197.09903 
L 144.354789 196.993068 
L 144.917526 195.532418 
L 145.237263 195.60874 
L 146.324368 195.908511 
L 146.963842 194.716789 
L 147.705632 194.934318 
L 148.268368 195.035318 
L 148.536947 194.274055 
L 148.895053 193.387228 
L 149.035737 193.397613 
L 150.237947 194.0501 
L 150.493737 193.463585 
L 150.890211 192.756409 
L 151.094842 192.865253 
L 152.156368 193.448924 
L 152.399368 192.994418 
L 152.783053 192.344013 
L 152.962105 192.3432 
L 154.138737 192.854347 
L 154.420105 192.327267 
L 154.752632 191.881401 
L 154.957263 191.938461 
L 156.069947 192.320743 
L 156.351316 191.835879 
L 156.709421 191.358108 
L 156.875684 191.414187 
L 157.297737 191.584327 
L 158.244158 191.771373 
L 158.755737 191.503047 
L 159.497526 191.750033 
L 160.239316 191.757206 
L 160.712526 191.491637 
L 161.607789 191.784104 
L 162.196105 191.740503 
L 162.669316 191.463323 
L 164.152895 192.000062 
L 164.626105 191.764326 
L 166.045737 192.444926 
L 166.570105 192.149758 
L 168.002526 192.888584 
L 168.526895 192.558591 
L 169.972105 193.332627 
L 170.483684 192.976756 
L 171.928895 193.798749 
L 172.440474 193.403197 
L 173.898474 194.259441 
L 174.077526 193.874773 
L 174.435632 193.240412 
L 174.589105 193.310635 
L 175.637842 194.494043 
L 175.842474 194.520823 
L 176.008737 194.206746 
L 176.392421 193.52132 
L 176.545895 193.607519 
L 177.556263 194.879079 
L 177.786474 194.959801 
L 177.965526 194.611433 
L 178.349211 193.872432 
L 178.489895 193.940889 
L 179.577 195.351004 
L 179.730474 195.384069 
L 179.743263 195.369705 
L 179.909526 195.026379 
L 180.306 194.172335 
L 180.446684 194.231289 
L 181.457053 195.510289 
L 181.674474 195.607951 
L 181.700053 195.576095 
L 181.879105 195.159834 
L 182.262789 194.283144 
L 182.403474 194.339181 
L 183.541737 195.838279 
L 183.771947 195.970288 
L 183.797526 195.937764 
L 184.334684 195.303374 
L 184.360263 195.32462 
L 185.703158 196.521021 
L 185.728737 196.489447 
L 186.291474 195.65679 
L 186.355421 195.711547 
L 187.583211 196.823335 
L 187.698316 196.797554 
L 187.711105 196.774538 
L 188.248263 195.922209 
L 188.273842 195.940905 
L 189.616737 197.16742 
L 189.680684 197.060626 
L 190.192263 196.176015 
L 190.217842 196.1908 
L 190.601526 196.641553 
L 191.343316 197.345104 
L 191.573526 197.458973 
L 191.599105 197.415616 
L 192.149053 196.435885 
L 192.187421 196.46674 
L 193.517526 197.788906 
L 193.555895 197.726846 
L 194.105842 196.682937 
L 194.157 196.726615 
L 195.474316 198.073662 
L 195.499895 198.034153 
L 196.062632 196.898118 
L 196.139368 196.969673 
L 197.379947 198.285249 
L 197.443895 198.281613 
L 197.469474 198.231426 
L 198.019421 197.045497 
L 198.083368 197.099509 
L 199.375105 198.392402 
L 199.477421 198.170765 
L 199.976211 197.011251 
L 199.989 197.016424 
L 200.257579 197.297738 
L 200.845895 197.807813 
L 201.267947 197.903692 
L 201.370263 197.811666 
L 202.303895 194.758475 
L 202.444579 192.688409 
L 202.802684 186.436983 
L 202.815474 186.452353 
L 202.905 186.926554 
L 203.135211 189.897723 
L 203.672368 196.593031 
L 204.273474 200.321117 
L 204.695526 201.762959 
L 205.181526 202.655955 
L 205.258263 202.737822 
L 205.296632 202.658781 
L 205.833789 200.933351 
L 205.948895 201.082949 
L 207.202263 203.410145 
L 207.227842 203.377748 
L 207.419684 202.620331 
L 207.803368 201.335347 
L 207.816158 201.341354 
L 207.982421 201.606589 
L 209.031158 203.523285 
L 209.657842 204.143277 
L 210.399632 204.562232 
L 211.473947 204.89442 
L 221.257895 207.314891 
L 226.360895 208.974804 
L 230.491895 210.540432 
L 234.200842 212.167593 
L 237.487737 213.855131 
L 240.199105 215.503421 
L 242.488421 217.142891 
L 244.458 218.825706 
L 246.095053 220.526779 
L 247.425158 222.208385 
L 248.525053 223.955488 
L 249.433105 225.816183 
L 250.174895 227.851802 
L 250.776 230.163051 
L 251.274789 233.010533 
L 251.684053 236.703862 
L 252.029368 241.935908 
L 252.349105 250.587457 
L 252.694421 267.243351 
L 253.333895 298.39981 
L 253.717579 306.373914 
L 254.126842 310.708003 
L 254.587263 313.350819 
L 255.111632 315.116051 
L 255.763895 316.541203 
L 256.646368 317.926285 
L 257.823 319.35297 
L 259.178684 320.649695 
L 260.636684 321.737329 
L 262.235368 322.650873 
L 264.038684 323.421901 
L 266.174526 324.086485 
L 268.796368 324.660618 
L 272.198368 325.165982 
L 277.224632 325.666144 
L 288.492158 326.732482 
L 290.653579 327.157123 
L 291.382579 327.49884 
L 291.958105 328.043427 
L 292.930105 329.340635 
L 294.810158 332.199311 
L 295.449632 333.821184 
L 297.611053 339.602026 
L 298.800474 342.014859 
L 300.041053 344.038373 
L 301.358368 345.770146 
L 302.765211 347.258237 
L 304.287158 348.545309 
L 305.937 349.648468 
L 307.740316 350.586304 
L 309.748263 351.377281 
L 312.012 352.025254 
L 314.595474 352.527961 
L 317.613789 352.88169 
L 321.258789 353.07632 
L 325.952526 353.092318 
L 333.101842 352.869575 
L 355.214842 352.077703 
L 369.436737 351.869431 
L 392.636842 351.786149 
L 521.260579 351.774084 
L 532.042105 351.774072 
L 532.042105 351.774072 
" style="fill:none;stroke:#ff7f0e;stroke-linecap:square;stroke-width:4;"/>
   </g>
   <g id="line2d_14">
    <path clip-path="url(#p1f293555e1)" d="M 97.187211 305.111261 
L 123.635842 305.030069 
L 124.070684 304.75656 
L 124.953158 303.83059 
L 126.539053 302.033755 
L 129.608526 297.789985 
L 133.100053 292.479172 
L 134.980105 290.232001 
L 136.821789 288.443181 
L 138.676263 287.001277 
L 140.569105 285.8456 
L 142.525895 284.93622 
L 144.610579 284.231794 
L 146.912684 283.71253 
L 148.524158 283.330983 
L 148.997368 282.453993 
L 150.110053 280.416181 
L 150.544895 279.612861 
L 151.082053 277.812253 
L 152.041263 272.773999 
L 152.680737 269.003212 
L 153.307421 263.693388 
L 153.870158 255.927147 
L 154.394526 245.717633 
L 154.765421 232.903125 
L 155.123526 212.112498 
L 155.814158 169.236655 
L 156.018789 167.757286 
L 156.082737 167.752147 
L 156.108316 167.788932 
L 156.658263 168.644955 
L 156.888474 168.679893 
L 157.118684 168.460706 
L 157.297737 168.045312 
L 158.973158 160.480523 
L 160.367211 156.574832 
L 160.853211 155.380871 
L 161.352 154.724697 
L 161.582211 154.365409 
L 162.669316 152.178407 
L 163.168105 151.640947 
L 163.858737 150.997864 
L 164.370316 150.153805 
L 164.869105 149.588822 
L 165.419053 149.301116 
L 165.853895 149.053124 
L 166.263158 148.485366 
L 166.761947 147.993067 
L 167.324684 147.747688 
L 167.989737 147.485535 
L 168.552474 146.872145 
L 169.102421 146.606733 
L 169.818632 146.521063 
L 169.972105 146.421029 
L 170.547632 145.888108 
L 171.135947 145.663372 
L 172.210263 145.338494 
L 172.760211 145.01593 
L 173.438053 144.887174 
L 174.128684 144.743901 
L 174.768158 144.392326 
L 175.484368 144.279768 
L 176.136632 144.15224 
L 176.635421 143.914969 
L 177.326053 143.773561 
L 178.336421 143.59344 
L 179.078211 143.349224 
L 180.843158 142.961618 
L 182.237211 142.659073 
L 184.449789 142.433109 
L 185.089263 142.367509 
L 186.176368 142.356302 
L 187.327421 142.317217 
L 188.542421 142.342052 
L 191.241 142.673861 
L 199.630895 143.73545 
L 201.229579 143.736113 
L 201.881842 143.546206 
L 202.201579 143.232485 
L 202.380632 142.714653 
L 202.546895 141.29079 
L 202.828263 139.313975 
L 202.905 139.380732 
L 203.058474 140.036147 
L 203.979316 144.794936 
L 204.350211 145.424138 
L 204.746684 145.67609 
L 205.514053 145.824359 
L 224.736632 148.85377 
L 235.633263 150.905997 
L 244.125474 152.73338 
L 250.507421 154.317762 
L 253.193211 155.162696 
L 254.433789 155.839073 
L 256.569632 156.934883 
L 260.125105 158.467922 
L 271.494947 163.255421 
L 275.408526 165.221751 
L 278.529158 167.052552 
L 280.831263 168.639816 
L 282.877579 170.304796 
L 284.553 171.961142 
L 285.857526 173.554972 
L 286.931842 175.209032 
L 287.801526 176.961762 
L 288.492158 178.85886 
L 289.054895 181.073875 
L 289.515316 183.844553 
L 289.886211 187.493827 
L 290.205947 193.05323 
L 290.487316 202.34669 
L 290.794263 221.206636 
L 291.344211 254.325522 
L 291.779053 266.737204 
L 292.252263 274.387021 
L 292.738263 278.953334 
L 293.249842 281.793073 
L 293.799789 283.650682 
L 294.490421 285.175499 
L 295.398474 287.190222 
L 298.212158 294.063165 
L 299.465526 296.340639 
L 300.757263 298.23714 
L 302.125737 299.857397 
L 303.583737 301.242978 
L 305.156842 302.433082 
L 306.870632 303.451352 
L 308.763474 304.316041 
L 310.886526 305.037257 
L 313.290947 305.614108 
L 316.066263 306.045109 
L 319.353158 306.322765 
L 323.420211 306.433654 
L 328.970842 306.346611 
L 340.174421 305.891628 
L 353.859158 305.425442 
L 367.595053 305.197293 
L 388.684895 305.098753 
L 473.415158 305.080879 
L 532.042105 305.080542 
L 532.042105 305.080542 
" style="fill:none;stroke:#ffbb78;stroke-linecap:square;stroke-width:4;"/>
   </g>
   <g id="line2d_15">
    <path clip-path="url(#p1f293555e1)" d="M 97.187211 258.866777 
L 123.507947 258.786086 
L 123.866053 258.524273 
L 124.543895 257.655697 
L 125.375211 256.746167 
L 126.014684 255.968057 
L 127.293632 254.313568 
L 127.945895 253.476198 
L 130.209632 249.691666 
L 131.578105 247.521035 
L 133.189579 245.264378 
L 135.069632 243.081904 
L 136.949684 241.323413 
L 138.906474 239.876543 
L 140.927211 238.725945 
L 143.037474 237.834537 
L 145.224474 237.182188 
L 147.462632 236.745395 
L 150.276316 236.417117 
L 153.537632 235.979472 
L 154.893316 235.567556 
L 155.609526 235.128588 
L 156.159474 234.512079 
L 158.218579 231.853995 
L 159.817263 230.382758 
L 161.454316 229.176973 
L 163.091368 228.233701 
L 164.792368 227.487068 
L 166.672421 226.901238 
L 168.795474 226.48434 
L 171.174316 226.248104 
L 173.847316 226.192181 
L 174.051947 226.08781 
L 174.384474 225.383443 
L 175.407632 223.160758 
L 176.200579 221.726732 
L 176.699368 219.650484 
L 178.003895 211.248231 
L 178.592211 205.581167 
L 178.899158 201.24548 
L 179.397947 190.85304 
L 179.871158 176.217856 
L 180.216474 157.24122 
L 180.728053 129.729519 
L 180.996632 125.879961 
L 181.188474 125.398181 
L 181.329158 125.508321 
L 181.776789 126.034854 
L 181.802368 125.988869 
L 181.968632 125.271339 
L 182.748789 121.62203 
L 182.966211 120.629523 
L 183.516158 117.968021 
L 184.066105 115.756893 
L 184.526526 114.281358 
L 185.843842 111.007437 
L 186.329842 109.739023 
L 186.803053 109.099364 
L 187.199526 108.579333 
L 188.286632 106.48507 
L 188.772632 106.0237 
L 189.373737 105.518842 
L 190.703842 103.849593 
L 191.599105 103.29266 
L 192.161842 102.522587 
L 192.686211 102.195854 
L 193.338474 102.062163 
L 193.504737 101.941839 
L 194.336053 101.048295 
L 194.937158 100.835477 
L 195.602211 100.610862 
L 196.126579 100.086897 
L 196.702105 99.827106 
L 197.763632 99.438379 
L 198.313579 99.043062 
L 199.004211 98.83375 
L 199.682053 98.614428 
L 200.538947 98.019182 
L 201.651632 97.387696 
L 201.996947 96.873427 
L 202.265526 96.088776 
L 202.419 94.797399 
L 202.764316 90.85392 
L 202.802684 90.898373 
L 202.930579 91.524692 
L 203.877 97.464545 
L 204.171158 97.937838 
L 204.542053 98.14637 
L 205.322211 98.249487 
L 206.946474 97.964119 
L 207.637105 97.822517 
L 209.619474 97.49537 
L 210.783316 97.417912 
L 211.819263 97.416996 
L 212.752895 97.377798 
L 213.737684 97.358354 
L 215.515421 97.583651 
L 220.976526 98.586304 
L 232.333579 100.872048 
L 241.887316 103.01666 
L 249.394737 104.921751 
L 252.963 106.012475 
L 254.114053 106.615721 
L 256.697526 107.9682 
L 260.086737 109.442708 
L 276.828158 116.435936 
L 280.601053 118.405829 
L 283.619368 120.237318 
L 285.959842 121.898525 
L 287.980579 123.596317 
L 289.566474 125.222848 
L 290.666368 126.64518 
L 291.357 127.873885 
L 291.894158 129.319056 
L 292.444105 131.466618 
L 292.942895 134.34745 
L 293.339368 138.019437 
L 293.646316 143.070375 
L 293.889316 150.947586 
L 294.106737 166.044913 
L 294.822947 226.991318 
L 295.181053 235.480007 
L 295.577526 240.009556 
L 296.025158 242.673709 
L 296.575105 244.626604 
L 297.380842 246.631837 
L 298.557474 248.948616 
L 299.874789 251.06623 
L 301.243263 252.851737 
L 302.675684 254.358553 
L 304.197632 255.639942 
L 305.847474 256.739219 
L 307.663579 257.679493 
L 309.671526 258.46587 
L 311.935263 259.109612 
L 314.518737 259.608394 
L 317.537053 259.958526 
L 321.194842 260.150195 
L 325.914158 260.162139 
L 333.127421 259.932704 
L 354.78 259.149485 
L 368.874 258.936519 
L 391.511368 258.849566 
L 506.399211 258.836041 
L 532.042105 258.835994 
L 532.042105 258.835994 
" style="fill:none;stroke:#2ca02c;stroke-linecap:square;stroke-width:4;"/>
   </g>
   <g id="patch_3">
    <path d="M 97.2 367.2 
L 97.2 64.8 
" style="fill:none;stroke:#000000;stroke-linecap:square;stroke-linejoin:miter;stroke-width:0.8;"/>
   </g>
   <g id="patch_4">
    <path d="M 97.2 367.2 
L 583.2 367.2 
" style="fill:none;stroke:#000000;stroke-linecap:square;stroke-linejoin:miter;stroke-width:0.8;"/>
   </g>
   <g id="text_14">
    <!-- Voltage Traces at Basal Dendrite (loc:0.9)  -->
    <g transform="translate(77.151172 30.805469)scale(0.25 -0.25)">
     <defs>
      <path d="M 1831 0 
L 50 4666 
L 709 4666 
L 2188 738 
L 3669 4666 
L 4325 4666 
L 2547 0 
L 1831 0 
z
" id="DejaVuSans-56" transform="scale(0.015625)"/>
      <path d="M 1959 3097 
Q 1497 3097 1228 2736 
Q 959 2375 959 1747 
Q 959 1119 1226 758 
Q 1494 397 1959 397 
Q 2419 397 2687 759 
Q 2956 1122 2956 1747 
Q 2956 2369 2687 2733 
Q 2419 3097 1959 3097 
z
M 1959 3584 
Q 2709 3584 3137 3096 
Q 3566 2609 3566 1747 
Q 3566 888 3137 398 
Q 2709 -91 1959 -91 
Q 1206 -91 779 398 
Q 353 888 353 1747 
Q 353 2609 779 3096 
Q 1206 3584 1959 3584 
z
" id="DejaVuSans-6f" transform="scale(0.015625)"/>
      <path d="M 603 4863 
L 1178 4863 
L 1178 0 
L 603 0 
L 603 4863 
z
" id="DejaVuSans-6c" transform="scale(0.015625)"/>
      <path d="M 1172 4494 
L 1172 3500 
L 2356 3500 
L 2356 3053 
L 1172 3053 
L 1172 1153 
Q 1172 725 1289 603 
Q 1406 481 1766 481 
L 2356 481 
L 2356 0 
L 1766 0 
Q 1100 0 847 248 
Q 594 497 594 1153 
L 594 3053 
L 172 3053 
L 172 3500 
L 594 3500 
L 594 4494 
L 1172 4494 
z
" id="DejaVuSans-74" transform="scale(0.015625)"/>
      <path d="M 2194 1759 
Q 1497 1759 1228 1600 
Q 959 1441 959 1056 
Q 959 750 1161 570 
Q 1363 391 1709 391 
Q 2188 391 2477 730 
Q 2766 1069 2766 1631 
L 2766 1759 
L 2194 1759 
z
M 3341 1997 
L 3341 0 
L 2766 0 
L 2766 531 
Q 2569 213 2275 61 
Q 1981 -91 1556 -91 
Q 1019 -91 701 211 
Q 384 513 384 1019 
Q 384 1609 779 1909 
Q 1175 2209 1959 2209 
L 2766 2209 
L 2766 2266 
Q 2766 2663 2505 2880 
Q 2244 3097 1772 3097 
Q 1472 3097 1187 3025 
Q 903 2953 641 2809 
L 641 3341 
Q 956 3463 1253 3523 
Q 1550 3584 1831 3584 
Q 2591 3584 2966 3190 
Q 3341 2797 3341 1997 
z
" id="DejaVuSans-61" transform="scale(0.015625)"/>
      <path d="M 2906 1791 
Q 2906 2416 2648 2759 
Q 2391 3103 1925 3103 
Q 1463 3103 1205 2759 
Q 947 2416 947 1791 
Q 947 1169 1205 825 
Q 1463 481 1925 481 
Q 2391 481 2648 825 
Q 2906 1169 2906 1791 
z
M 3481 434 
Q 3481 -459 3084 -895 
Q 2688 -1331 1869 -1331 
Q 1566 -1331 1297 -1286 
Q 1028 -1241 775 -1147 
L 775 -588 
Q 1028 -725 1275 -790 
Q 1522 -856 1778 -856 
Q 2344 -856 2625 -561 
Q 2906 -266 2906 331 
L 2906 616 
Q 2728 306 2450 153 
Q 2172 0 1784 0 
Q 1141 0 747 490 
Q 353 981 353 1791 
Q 353 2603 747 3093 
Q 1141 3584 1784 3584 
Q 2172 3584 2450 3431 
Q 2728 3278 2906 2969 
L 2906 3500 
L 3481 3500 
L 3481 434 
z
" id="DejaVuSans-67" transform="scale(0.015625)"/>
      <path d="M 2631 2963 
Q 2534 3019 2420 3045 
Q 2306 3072 2169 3072 
Q 1681 3072 1420 2755 
Q 1159 2438 1159 1844 
L 1159 0 
L 581 0 
L 581 3500 
L 1159 3500 
L 1159 2956 
Q 1341 3275 1631 3429 
Q 1922 3584 2338 3584 
Q 2397 3584 2469 3576 
Q 2541 3569 2628 3553 
L 2631 2963 
z
" id="DejaVuSans-72" transform="scale(0.015625)"/>
      <path d="M 3122 3366 
L 3122 2828 
Q 2878 2963 2633 3030 
Q 2388 3097 2138 3097 
Q 1578 3097 1268 2742 
Q 959 2388 959 1747 
Q 959 1106 1268 751 
Q 1578 397 2138 397 
Q 2388 397 2633 464 
Q 2878 531 3122 666 
L 3122 134 
Q 2881 22 2623 -34 
Q 2366 -91 2075 -91 
Q 1284 -91 818 406 
Q 353 903 353 1747 
Q 353 2603 823 3093 
Q 1294 3584 2113 3584 
Q 2378 3584 2631 3529 
Q 2884 3475 3122 3366 
z
" id="DejaVuSans-63" transform="scale(0.015625)"/>
      <path d="M 1259 2228 
L 1259 519 
L 2272 519 
Q 2781 519 3026 730 
Q 3272 941 3272 1375 
Q 3272 1813 3026 2020 
Q 2781 2228 2272 2228 
L 1259 2228 
z
M 1259 4147 
L 1259 2741 
L 2194 2741 
Q 2656 2741 2882 2914 
Q 3109 3088 3109 3444 
Q 3109 3797 2882 3972 
Q 2656 4147 2194 4147 
L 1259 4147 
z
M 628 4666 
L 2241 4666 
Q 2963 4666 3353 4366 
Q 3744 4066 3744 3513 
Q 3744 3084 3544 2831 
Q 3344 2578 2956 2516 
Q 3422 2416 3680 2098 
Q 3938 1781 3938 1306 
Q 3938 681 3513 340 
Q 3088 0 2303 0 
L 628 0 
L 628 4666 
z
" id="DejaVuSans-42" transform="scale(0.015625)"/>
      <path d="M 1259 4147 
L 1259 519 
L 2022 519 
Q 2988 519 3436 956 
Q 3884 1394 3884 2338 
Q 3884 3275 3436 3711 
Q 2988 4147 2022 4147 
L 1259 4147 
z
M 628 4666 
L 1925 4666 
Q 3281 4666 3915 4102 
Q 4550 3538 4550 2338 
Q 4550 1131 3912 565 
Q 3275 0 1925 0 
L 628 0 
L 628 4666 
z
" id="DejaVuSans-44" transform="scale(0.015625)"/>
      <path d="M 3513 2113 
L 3513 0 
L 2938 0 
L 2938 2094 
Q 2938 2591 2744 2837 
Q 2550 3084 2163 3084 
Q 1697 3084 1428 2787 
Q 1159 2491 1159 1978 
L 1159 0 
L 581 0 
L 581 3500 
L 1159 3500 
L 1159 2956 
Q 1366 3272 1645 3428 
Q 1925 3584 2291 3584 
Q 2894 3584 3203 3211 
Q 3513 2838 3513 2113 
z
" id="DejaVuSans-6e" transform="scale(0.015625)"/>
      <path d="M 2906 2969 
L 2906 4863 
L 3481 4863 
L 3481 0 
L 2906 0 
L 2906 525 
Q 2725 213 2448 61 
Q 2172 -91 1784 -91 
Q 1150 -91 751 415 
Q 353 922 353 1747 
Q 353 2572 751 3078 
Q 1150 3584 1784 3584 
Q 2172 3584 2448 3432 
Q 2725 3281 2906 2969 
z
M 947 1747 
Q 947 1113 1208 752 
Q 1469 391 1925 391 
Q 2381 391 2643 752 
Q 2906 1113 2906 1747 
Q 2906 2381 2643 2742 
Q 2381 3103 1925 3103 
Q 1469 3103 1208 2742 
Q 947 2381 947 1747 
z
" id="DejaVuSans-64" transform="scale(0.015625)"/>
      <path d="M 750 794 
L 1409 794 
L 1409 0 
L 750 0 
L 750 794 
z
M 750 3309 
L 1409 3309 
L 1409 2516 
L 750 2516 
L 750 3309 
z
" id="DejaVuSans-3a" transform="scale(0.015625)"/>
      <path d="M 684 794 
L 1344 794 
L 1344 0 
L 684 0 
L 684 794 
z
" id="DejaVuSans-2e" transform="scale(0.015625)"/>
      <path d="M 703 97 
L 703 672 
Q 941 559 1184 500 
Q 1428 441 1663 441 
Q 2288 441 2617 861 
Q 2947 1281 2994 2138 
Q 2813 1869 2534 1725 
Q 2256 1581 1919 1581 
Q 1219 1581 811 2004 
Q 403 2428 403 3163 
Q 403 3881 828 4315 
Q 1253 4750 1959 4750 
Q 2769 4750 3195 4129 
Q 3622 3509 3622 2328 
Q 3622 1225 3098 567 
Q 2575 -91 1691 -91 
Q 1453 -91 1209 -44 
Q 966 3 703 97 
z
M 1959 2075 
Q 2384 2075 2632 2365 
Q 2881 2656 2881 3163 
Q 2881 3666 2632 3958 
Q 2384 4250 1959 4250 
Q 1534 4250 1286 3958 
Q 1038 3666 1038 3163 
Q 1038 2656 1286 2365 
Q 1534 2075 1959 2075 
z
" id="DejaVuSans-39" transform="scale(0.015625)"/>
     </defs>
     <use xlink:href="#DejaVuSans-56"/>
     <use x="60.658203" xlink:href="#DejaVuSans-6f"/>
     <use x="121.839844" xlink:href="#DejaVuSans-6c"/>
     <use x="149.623047" xlink:href="#DejaVuSans-74"/>
     <use x="188.832031" xlink:href="#DejaVuSans-61"/>
     <use x="250.111328" xlink:href="#DejaVuSans-67"/>
     <use x="313.587891" xlink:href="#DejaVuSans-65"/>
     <use x="375.111328" xlink:href="#DejaVuSans-20"/>
     <use x="406.898438" xlink:href="#DejaVuSans-54"/>
     <use x="453.232422" xlink:href="#DejaVuSans-72"/>
     <use x="494.345703" xlink:href="#DejaVuSans-61"/>
     <use x="555.625" xlink:href="#DejaVuSans-63"/>
     <use x="610.605469" xlink:href="#DejaVuSans-65"/>
     <use x="672.128906" xlink:href="#DejaVuSans-73"/>
     <use x="724.228516" xlink:href="#DejaVuSans-20"/>
     <use x="756.015625" xlink:href="#DejaVuSans-61"/>
     <use x="817.294922" xlink:href="#DejaVuSans-74"/>
     <use x="856.503906" xlink:href="#DejaVuSans-20"/>
     <use x="888.291016" xlink:href="#DejaVuSans-42"/>
     <use x="956.894531" xlink:href="#DejaVuSans-61"/>
     <use x="1018.173828" xlink:href="#DejaVuSans-73"/>
     <use x="1070.273438" xlink:href="#DejaVuSans-61"/>
     <use x="1131.552734" xlink:href="#DejaVuSans-6c"/>
     <use x="1159.335938" xlink:href="#DejaVuSans-20"/>
     <use x="1191.123047" xlink:href="#DejaVuSans-44"/>
     <use x="1268.125" xlink:href="#DejaVuSans-65"/>
     <use x="1329.648438" xlink:href="#DejaVuSans-6e"/>
     <use x="1393.027344" xlink:href="#DejaVuSans-64"/>
     <use x="1456.503906" xlink:href="#DejaVuSans-72"/>
     <use x="1497.617188" xlink:href="#DejaVuSans-69"/>
     <use x="1525.400391" xlink:href="#DejaVuSans-74"/>
     <use x="1564.609375" xlink:href="#DejaVuSans-65"/>
     <use x="1626.132812" xlink:href="#DejaVuSans-20"/>
     <use x="1657.919922" xlink:href="#DejaVuSans-28"/>
     <use x="1696.933594" xlink:href="#DejaVuSans-6c"/>
     <use x="1724.716797" xlink:href="#DejaVuSans-6f"/>
     <use x="1785.898438" xlink:href="#DejaVuSans-63"/>
     <use x="1840.878906" xlink:href="#DejaVuSans-3a"/>
     <use x="1874.570312" xlink:href="#DejaVuSans-30"/>
     <use x="1938.193359" xlink:href="#DejaVuSans-2e"/>
     <use x="1969.980469" xlink:href="#DejaVuSans-39"/>
     <use x="2033.603516" xlink:href="#DejaVuSans-29"/>
     <use x="2072.617188" xlink:href="#DejaVuSans-20"/>
    </g>
    <!--  -->
    <g transform="translate(340.2 58.8)scale(0.25 -0.25)"/>
   </g>
  </g>
 </g>
 <defs>
  <clipPath id="p1f293555e1">
   <rect height="302.4" width="486" x="97.2" y="64.8"/>
  </clipPath>
 </defs>
</svg>
